<?xml version="1.0" encoding="UTF-8"?>
<!DOCTYPE svg PUBLIC "-//W3C//DTD SVG 1.1//EN" "http://www.w3.org/Graphics/SVG/1.1/DTD/svg11.dtd">
<!-- Creator: CorelDRAW X7 -->
<svg xmlns="http://www.w3.org/2000/svg" xml:space="preserve" width="758px" height="800px" version="1.1" style="shape-rendering:geometricPrecision; text-rendering:geometricPrecision; image-rendering:optimizeQuality; fill-rule:evenodd; clip-rule:evenodd"
viewBox="0 0 32235 34036"
 xmlns:xlink="http://www.w3.org/1999/xlink">
 <defs>
  <style type="text/css">
   <![CDATA[
    .fil0 {fill:#373435}
   ]]>
  </style>
 </defs>
 <g id="Content">
  <metadata id="CorelCorpID_0Corel-Layer"/>
  <path class="fil0" d="M15621 435c-497,809 -982,2602 -983,4107 0,0 0,3611 0,7676l-2909 1778 19 -152 177 0 2 -12c0,0 113,-997 134,-1257 7,-84 10,-184 10,-289 0,-221 -14,-462 -38,-606 -29,-93 -67,-192 -183,-202 -147,-12 -364,-16 -574,-16 -287,0 -561,8 -632,16 -115,14 -154,109 -182,200 -25,146 -39,387 -39,608 0,105 3,205 10,289 21,260 135,1257 135,1257l1 12 163 0 65 722 -10017 6126c-106,67 -203,192 -275,448 -13,52 -49,115 -68,140l-369 670c-45,93 -68,197 -68,358 0,55 3,117 8,187l3 34 604 -362 5178 -2174 878 -291c5,100 31,495 192,585l8 4 7 -5c7,-5 128,-95 136,-698l1454 -482c8,95 43,468 183,570l11 7 8 -10c3,-3 118,-142 130,-677l1439 -477c9,103 47,500 187,602l11 7 8 -9c3,-4 115,-139 126,-710l1254 -416 249 -16c7,108 38,531 181,686l8 8 10 -6c7,-6 128,-89 132,-709l2052 -132c-4,62 -8,134 -8,204 0,54 2,107 8,157 20,202 168,1207 181,1299 0,2146 0,3713 0,3929 0,110 0,230 0,363 0,795 20,2042 312,4346 122,956 234,1554 328,2074l-3754 2379c-475,282 -556,1008 -586,1430l-2 31 4792 -1463 192 1015 111 0c32,188 68,300 68,300l13 42 14 -42c0,0 36,-112 68,-300l114 0 194 -1014 4800 1462 -2 -31c-30,-422 -111,-1148 -586,-1430l-3756 -2380c94,-521 206,-1118 327,-2073 292,-2304 313,-3551 313,-4346 0,-133 -1,-253 -1,-363 0,-215 0,-1779 0,-3922l2 1c0,-1 162,-1095 183,-1307 5,-50 7,-103 7,-157 0,-70 -3,-141 -7,-204l2048 132c4,620 125,704 132,709l10 6 8 -8c143,-155 175,-578 181,-686l249 16 1255 416c10,571 122,706 126,710l8 9 10 -7c141,-102 179,-499 187,-602l1440 477c11,535 126,674 129,677l9 10 10 -7c141,-102 176,-475 184,-570l1454 482c8,603 129,693 135,699l7 4 8 -4c162,-90 187,-485 193,-585l879 291 5179 2176 602 360 2 -34c6,-70 8,-132 8,-187 0,0 0,-1 0,-1 0,-160 -23,-265 -67,-356l-367 -668c-22,-28 -57,-91 -70,-143 -73,-256 -169,-381 -275,-448l-10018 -6126 66 -722 163 0 1 -12c0,0 113,-997 134,-1257 7,-84 10,-184 10,-289 0,-221 -14,-462 -38,-606 -28,-93 -68,-188 -182,-202 -72,-8 -346,-16 -633,-16 -210,0 -426,5 -574,16 -115,10 -154,109 -182,200 -24,146 -39,387 -39,608 0,105 3,205 11,289 21,260 134,1257 134,1257l1 12 177 0 19 152 -2909 -1778c0,-4065 0,-7676 0,-7676 0,-1003 -216,-2135 -507,-3017 -145,-441 -310,-820 -476,-1090 -166,-269 -332,-433 -496,-435 -165,2 -331,166 -497,435zm-632 3153l-247 -30c22,-184 49,-367 80,-549l228 25c22,3 39,21 39,43 0,1 -1,3 -1,5l-53 468c-3,22 -21,38 -43,38 -2,0 -3,0 -3,0zm-308 6205c0,-188 -1,-374 -1,-556l234 0c24,0 43,19 43,42l0 472c0,23 -19,42 -43,42l-233 0zm-481 2742l0 655 -2516 1442 -193 -421 229 -141 1 -6 2 -14 2477 -1515zm-2480 1309l-21 171 -353 216 0 -387 374 0zm-1206 -2227c26,-58 62,-102 133,-111 68,-7 343,-16 629,-16 210,0 426,5 572,16 70,6 107,51 132,111 -273,-12 -527,-16 -745,-16 -382,0 -652,12 -721,16zm80 2199c-13,-115 -113,-1001 -133,-1244 -7,-82 -10,-182 -10,-286 0,-220 14,-460 38,-602 4,-13 9,-26 14,-38 38,-2 319,-17 732,-17 221,0 479,5 757,17 4,13 9,26 13,40 24,140 38,380 38,600 0,104 -3,204 -10,286 -20,243 -120,1129 -133,1244l-164 0 0 0 -390 0 0 -1102c-1,-111 -55,-263 -104,-306l-9 -7 -9 7c-49,43 -103,196 -104,306l0 1102 -376 0 0 0 -150 0zm554 -1102c-1,-92 49,-232 85,-275 36,43 86,183 85,275l0 1534 -170 104 0 -1638zm-388 1130l360 0 0 525 -296 181 -64 -706zm42 770l1 19 302 -185c68,126 78,215 78,255 0,8 0,14 0,18l-311 233 14 132 -1312 776 -248 -347 1476 -901zm-1500 916l248 346 -1684 995 -208 -335 1644 -1006zm-1668 1020l208 336 -1705 1008 -194 -309 1691 -1035zm-1715 1049l194 309 -1868 1104 -175 -282 1849 -1131zm-1873 1145l174 283 -1645 972 -163 -255 1634 -1000zm-3265 1999c7,-5 14,-10 21,-15l1586 -969 163 255 -1633 965 -137 -236zm-241 426c2,-6 4,-12 6,-18 36,-127 77,-218 121,-285 13,30 32,82 32,134 0,29 -6,58 -22,84 -48,78 -110,85 -134,85 -1,0 -2,0 -3,0zm458 792l78 -378 2192 -1055 174 406 -2444 1027zm4670 -1962l-2200 924 -174 -407 2307 -1111 67 594zm111 -46l-83 35 -71 -626 -4573 2202 -86 410 -370 156 -548 328c-4,-56 -6,-105 -6,-150 0,-157 23,-253 64,-339l366 -666c9,-12 22,-32 34,-55 1,0 1,0 2,1 34,29 116,142 115,547 0,45 -1,95 -3,148l28 1c3,-53 4,-103 4,-149 0,-272 -36,-416 -73,-494 -22,-46 -44,-68 -60,-80 4,-8 8,-17 11,-25 2,0 6,0 13,0 29,1 105,-10 158,-99 19,-31 26,-65 26,-98 0,-68 -27,-132 -41,-161 24,-32 48,-58 73,-79l149 257 10008 -5916 -14 -134 307 -230 1 -6c0,0 2,-10 2,-28 0,-44 -12,-139 -82,-270l181 -111 35 -20 0 -2 121 -74 204 446 2557 -1465 0 -689 410 -251 0 3041 -149 2070 -1168 89 9 -388 -1458 115 -21 385 -526 41 0 -426 -5395 2032 -51 693 -100 34zm7513 -2483l-1413 107 20 -357 1402 -110 -9 360zm-6394 1421l984 -370 108 290 -988 355 -104 -275zm77 284l-1040 374 22 -303 915 -345 103 274zm934 -664l1103 -416 114 308 -1109 398 -108 -290zm1130 -426l1107 -417 120 326 -1113 399 -114 -308zm1133 -427l1125 -424 0 390 -1005 360 -120 -326zm-3253 2494c-16,48 -31,76 -41,92 -5,6 -8,10 -10,13 -73,-46 -119,-186 -142,-317 -20,-109 -26,-211 -28,-247l110 -37 177 -52c-5,289 -36,455 -66,548zm1787 -629c-15,50 -30,84 -41,105 -3,6 -6,12 -9,16 -62,-54 -105,-189 -129,-313 -21,-104 -29,-199 -32,-234l277 -92c-7,257 -37,420 -66,518zm1773 -557c-15,52 -29,86 -39,107 -4,7 -7,12 -9,16 -62,-54 -107,-198 -131,-330 -21,-109 -31,-210 -34,-249l277 -92c-6,275 -36,446 -64,548zm-4570 944l24 -334 1 3 5363 -1925 0 470 -5388 1786zm6406 -1380c-16,48 -31,77 -42,93 -2,4 -5,7 -7,10 -69,-84 -112,-250 -135,-396 -18,-115 -26,-217 -29,-262l275 -17c-2,304 -33,476 -62,572zm-498 -579l-492 163 0 -466 3162 -241 -16 227c0,18 -6,74 -11,147l-2643 170zm2681 230c-4,-48 -6,-100 -6,-153 0,-175 21,-351 21,-393l125 -1739 0 1894 0 0c0,485 0,954 0,1401 -49,-340 -125,-871 -140,-1010zm184 1154l0 -374 97 0c24,0 43,19 43,42l0 289c0,23 -19,43 -43,43l-97 0zm185 7710l161 -20c1,0 3,0 4,0 22,0 41,16 43,38l47 469c0,1 0,3 0,5 0,21 -17,40 -39,42l-154 20c-23,-193 -43,-377 -62,-554zm-3885 6933c30,-424 125,-1111 564,-1366l3740 -2371 274 1458 -4001 1681 -9 424 -568 174zm596 -182l9 -398 3978 -1670 151 804 -4138 1264zm4535 37c-32,-115 -105,-430 -107,-844l213 0c-2,414 -76,729 -106,844zm397 -1301l156 -807 3985 1673 9 398 -4150 -1264zm4181 79c440,256 535,943 564,1367l-567 -173 -9 -425 -4008 -1684 281 -1455 3739 2370zm-3483 -5586l160 20c-18,177 -39,361 -61,554l-154 -20c-23,-2 -40,-21 -40,-42 0,-1 0,-3 1,-5l46 -469c2,-22 21,-38 43,-38 2,0 3,0 5,0zm539 -8997c0,53 -2,105 -7,153 -14,140 -91,678 -141,1018l-2 -3344 129 1782c0,40 21,216 21,391zm-192 1307l-99 0c-24,0 -43,-20 -43,-43l0 -289c0,-23 19,-42 43,-42l99 0c0,126 0,251 0,374zm2550 -1098c-24,146 -66,312 -136,396 -2,-3 -4,-6 -7,-10 -32,-47 -101,-205 -104,-665l275 17c-2,45 -10,147 -28,262zm313 -286l-2639 -170c-6,-73 -11,-128 -11,-146l-16 -228 3159 241 0 466 -493 -163zm-1475 -481l-9 -360 1402 110 20 357 -1413 -107zm6291 1696l-988 -355 107 -290 984 370 -103 275zm130 -265l915 345 22 303 -1041 -374 104 -274zm-1145 -100l-1110 -398 114 -308 1104 416 -108 290zm-1136 -408l-1113 -399 120 -326 1107 417 -114 308zm-1140 -409l-1004 -360 0 -390 1124 424 -120 326zm-7 775c-25,132 -69,276 -131,330 -3,-4 -6,-9 -9,-16 -31,-61 -95,-237 -103,-655l276 92c-3,39 -12,140 -33,249zm1773 572c-24,124 -67,259 -130,313 -2,-4 -5,-9 -9,-16 -31,-61 -96,-233 -106,-623l277 92c-3,35 -12,130 -32,234zm1801 609c-24,131 -70,272 -142,317 -3,-2 -6,-7 -10,-13 -32,-47 -101,-203 -108,-640l179 53 109 36c-2,36 -9,138 -28,247zm-4571 -1816l0 -470 5363 1925 1 -2 24 333 -5388 -1786zm5628 1875l68 -594 2307 1111 -175 407 -2200 -924zm2226 935l174 -406 2192 1055 79 378 -2445 -1027zm2891 197c-30,-4 -80,-19 -120,-84 -17,-28 -23,-58 -23,-86 0,-35 9,-67 18,-91 2,-4 4,-7 5,-11 43,65 84,152 120,272zm-251 -403c7,5 14,10 21,15l-137 236 -1632 -965 163 -255 1585 969zm-1609 -984l-164 255 -1645 -972 174 -283 1635 1000zm-1659 -1014l-174 282 -1868 -1104 194 -309 1848 1131zm-1872 -1145l-195 309 -1704 -1008 208 -335 1691 1034zm-1716 -1049l-208 335 -1683 -995 247 -346 1644 1006zm-3143 -1922l1475 901 -248 347 -1312 -776 15 -132 -311 -233c-1,-4 -1,-10 -1,-18 0,-40 10,-129 78,-255l302 185 2 -19zm42 -770l-65 706 -295 -181 0 -525 360 0zm-1088 -2338c145,-11 361,-16 571,-16 286,0 562,8 630,16 70,9 107,52 132,111 -69,-4 -339,-16 -721,-16 -217,0 -472,4 -745,16 25,-60 62,-105 133,-111zm-52 2310c-14,-115 -114,-1001 -134,-1244 -7,-82 -10,-182 -10,-286 0,-220 15,-460 39,-602 4,-13 8,-26 13,-38 277,-12 536,-17 756,-17 412,0 693,15 733,17 5,13 9,26 14,40 23,140 37,380 37,600 0,104 -3,204 -10,286 -19,243 -120,1129 -133,1244l-150 0 0 0 -375 0 0 -1102c-1,-111 -55,-263 -105,-306l-9 -7 -8 7c-49,43 -103,196 -105,306l0 1102 -389 0 0 0 -164 0zm581 -1102c-1,-92 50,-232 86,-275 36,43 86,183 85,275l0 1638 -171 -104 0 -1534zm-401 1130l373 0 0 387 -352 -216 -21 -171zm-4 206l3 20 6 4 224 137 -193 421 -2516 -1442 0 -655 2476 1515zm-2504 -1532l-1 689 2558 1465 204 -446 120 74 0 2 7 4 31 17 179 110c-71,131 -82,226 -82,270 0,18 2,28 2,28l1 6 307 230 -15 134 10008 5916 150 -257c23,20 46,44 68,73 -12,25 -32,72 -32,128 0,32 7,67 27,101 51,83 120,97 153,98 6,19 13,38 21,56 -11,9 -27,28 -41,68 -23,65 -46,189 -46,431 0,60 1,128 4,203l29 -1c-4,-75 -5,-142 -5,-202 0,-240 23,-362 45,-422 10,-29 20,-43 27,-50 13,26 27,48 38,63l365 664c41,85 63,181 63,338 0,45 -2,94 -5,150l-546 -327 -373 -156 -85 -411 -4573 -2202 -71 626 -81 -35 -103 -34 -50 -693 -5395 -2032 0 426 -526 -41 -22 -385 -1458 -115 10 388 -1165 -88 -153 -2117c0,-994 0,-2007 0,-2995l411 251zm-453 -3281c0,182 0,368 0,556l-234 0c-24,0 -43,-19 -43,-42l0 -472c0,-23 19,-42 43,-42l234 0zm-62 -5679l-245 29c-2,1 -3,1 -5,1 -21,0 -40,-16 -42,-38l-54 -469c0,-1 0,-2 0,-5 0,-21 16,-39 38,-42l228 -25c32,182 59,365 80,549zm-914 -3101c324,527 646,1487 827,2510l-226 25c-43,5 -76,42 -76,84 1,3 0,7 1,12l54 467c5,43 41,75 84,75 3,0 7,0 11,-1l244 -29c37,319 57,637 57,942 0,0 0,1977 0,4652l-234 0c-47,1 -85,38 -85,85l0 472c0,47 38,85 85,85l234 0c0,750 0,1544 0,2356l0 0 0 5598 0 0c0,387 0,765 0,1129l-99 0c-47,0 -85,37 -85,84l0 289c0,47 38,85 85,85l99 0c0,2201 0,3817 0,4036 0,110 0,230 0,363 0,655 -14,1618 -182,3227l-161 -20c-3,0 -6,-1 -9,-1 -43,0 -80,33 -85,77l-46 469c-1,3 -1,5 -1,9 0,43 33,80 77,84l154 20c-18,153 -38,311 -58,475 -123,964 -236,1562 -331,2087l-640 3343 -72 0c25,-153 46,-348 46,-571 0,-4 0,-7 0,-10l180 -3198 -169 -2501c-22,-179 -109,-302 -136,-356l-13 -25 -13 25c-27,54 -114,177 -136,356l-170 2500 187 3223 1 0c1,217 22,408 46,557l-69 0 -633 -3343c-94,-525 -207,-1123 -330,-2087 -21,-164 -40,-322 -58,-475l154 -20c43,-4 76,-41 76,-84 0,-3 0,-6 0,-8l-47 -470c-5,-44 -42,-76 -85,-76 -3,0 -5,0 -8,0l-161 20c-169,-1609 -183,-2572 -183,-3227 0,-133 0,-253 0,-363 1,-215 0,-1780 0,-3924l2 0 0 -112 97 0c47,0 85,-38 86,-85l0 -289c-1,-46 -39,-84 -86,-84l-97 0 2 -3657 -3 0c0,-1838 -1,-3742 -1,-5426l234 0c47,0 86,-38 86,-85l0 -472c0,-47 -39,-85 -86,-85l-233 0c0,-2675 -1,-4652 -1,-4652 1,-305 21,-623 57,-943l245 30c4,1 7,1 10,1 43,0 80,-32 85,-75l53 -469c1,-3 1,-6 1,-9 0,-43 -32,-80 -76,-85l-225 -25c89,-507 213,-998 356,-1429 144,-439 308,-815 471,-1081 163,-266 328,-417 461,-415 133,-2 298,149 461,415zm-567 32037c-10,53 -18,117 -24,192l-169 -2920 170 -2498c18,-151 84,-259 120,-322 36,63 102,171 120,323l170 2498 -164 2900c-5,-67 -13,-125 -22,-173 -23,-110 -48,-175 -100,-179 -53,4 -78,69 -101,179zm28 5c19,-109 54,-159 73,-156 18,-3 53,47 72,156 21,106 33,262 34,462l-213 0c1,-200 13,-356 34,-462zm-330 -31577l31 297 367 -214 0 -338 -22 14 -376 241zm370 67l-315 184 -25 -237 340 -217 0 270zm-351 231l-38 -294 -21 36 -190 319 165 135 84 -196zm-212 55l157 -264 26 205 -66 155 -117 -96zm112 156l-163 -127 -7 17 -203 487 109 18 134 -122 130 -273zm-334 355l183 -437 116 91 -118 247 -120 109 -61 -10zm832 -781l367 214 31 -297 -398 -255 0 26 0 312zm369 -69l-26 237 -314 -184 0 -270 340 217zm11 284l83 196 165 -135 -211 -355 -5 41 -32 253zm212 55l-118 96 -65 -155 26 -205 157 264zm-113 157l130 272 135 122 109 -18 -211 -504 -14 12 -149 116zm334 354l-60 10 -121 -109 -118 -247 116 -91 183 437z"/>
 </g>
</svg>
