<?xml version="1.0" encoding="UTF-8"?>
<!DOCTYPE svg PUBLIC "-//W3C//DTD SVG 1.1//EN" "http://www.w3.org/Graphics/SVG/1.1/DTD/svg11.dtd">
<!-- Creator: CorelDRAW X7 -->
<svg xmlns="http://www.w3.org/2000/svg" xml:space="preserve" width="710px" height="750px" version="1.1" style="shape-rendering:geometricPrecision; text-rendering:geometricPrecision; image-rendering:optimizeQuality; fill-rule:evenodd; clip-rule:evenodd"
viewBox="0 0 78754 83116"
 xmlns:xlink="http://www.w3.org/1999/xlink">
 <defs>
  <style type="text/css">
   <![CDATA[
    .fil0 {fill:#373435}
   ]]>
  </style>
 </defs>
 <g id="Layer_x0020_1">
  <metadata id="CorelCorpID_0Corel-Layer"/>
  <g id="_389609136">
   <path class="fil0" d="M62026 49226c15,-8 33,-8 47,1l0 0 677 401c15,8 23,23 23,40l0 0c0,101 1,195 1,284l0 0c0,306 -2,540 -17,700l0 0c-20,154 -31,264 -144,280l0 0c-87,-16 -114,-90 -181,-201l0 0c-60,-111 -127,-263 -191,-432l0 0c-126,-339 -238,-745 -238,-1032l0 0c0,-17 9,-33 23,-41l0 0zm74 125c27,392 239,998 398,1305l0 0c48,97 101,167 117,180l0 0c3,-2 9,-9 17,-29l0 1c13,-32 24,-89 31,-165l0 0c15,-153 17,-386 17,-691l0 0c0,-81 0,-167 0,-257l0 0 -580 -344z"/>
   <path class="fil0" d="M56873 46216c14,-8 32,-8 47,0l0 0 775 452c15,8 23,24 23,40l0 0c0,601 -34,1033 -108,1228l0 0c-25,63 -56,117 -125,121l0 1c-52,-6 -69,-37 -98,-73l0 0c-27,-37 -56,-88 -87,-150l0 0c-63,-124 -133,-292 -199,-479l0 0c-133,-373 -251,-812 -252,-1099l0 0c0,-17 9,-33 24,-41l0 0zm73 124c29,401 253,1074 421,1419l0 0c48,106 102,184 121,203l0 0c1,-1 3,-3 5,-5l0 0c8,-9 19,-28 29,-55l0 0c21,-54 41,-139 56,-250l0 0c30,-217 46,-532 47,-917l0 0 -679 -395z"/>
   <path class="fil0" d="M49557 43550c11,-9 27,-12 41,-7l0 0 864 259c19,6 33,25 33,45l0 0c-1,601 -34,1160 -131,1418l0 0c-33,83 -74,152 -156,157l0 0c-94,-12 -140,-101 -213,-227 -69,-128 -142,-301 -209,-491l0 0c-135,-382 -248,-829 -248,-1116l0 0c0,-15 7,-29 19,-38l0 0zm76 101c14,250 105,622 217,950l0 0c118,357 275,675 349,721l0 0c8,6 9,6 9,6l0 0c7,2 40,-19 68,-97l0 0c29,-74 53,-188 72,-328l0 0c36,-270 52,-637 53,-1021l0 0 -768 -231z"/>
   <path class="fil0" d="M46091 42493c12,-9 27,-12 42,-8l0 0 863 260c20,6 34,24 34,45l0 0c-1,601 -35,1159 -132,1417l0 0c-33,84 -74,153 -156,158l0 0c-94,-12 -139,-102 -213,-227l0 0c-68,-128 -141,-301 -209,-492l0 0c-135,-381 -247,-829 -248,-1115l0 0c0,-15 7,-30 19,-38l0 0zm77 101c13,250 104,621 216,950l0 0c118,357 275,675 349,721l0 0c8,6 9,6 9,5l0 0c7,3 40,-18 69,-96l0 0c28,-75 53,-189 71,-328l0 0c37,-270 53,-637 54,-1021l0 0 -768 -231z"/>
   <path class="fil0" d="M15980 49668l47 0 24 40 -24 -40 -47 0c0,-17 9,-32 23,-40l0 0 677 -401c15,-9 33,-9 47,-1l0 0c15,8 24,24 24,41 -1,430 -250,1130 -429,1464l0 0c-68,111 -95,185 -181,201l0 0c-113,-16 -125,-126 -144,-280l0 0c-15,-160 -17,-394 -17,-701l0 0c0,-88 0,-182 0,-283l0 0zm94 283c-1,458 6,758 47,856l0 1c9,18 14,25 17,28l0 0c0,0 0,0 0,0l0 0c6,-5 15,-14 26,-27l0 0c21,-27 47,-69 75,-122l0 0c57,-106 123,-255 186,-421l0 0c111,-299 211,-654 229,-915l0 0 -580 344c0,90 0,176 0,256l0 0z"/>
   <path class="fil0" d="M21058 46668l776 -452c14,-8 32,-9 47,0l0 0c14,8 23,24 23,41l0 0c-3,502 -356,1473 -537,1728l0 0c-29,36 -46,67 -99,73l0 0c-68,-5 -99,-59 -124,-122l0 0c-26,-66 -45,-156 -61,-271l0 0c-32,-230 -48,-557 -48,-957l0 0 47 0 24 41 -24 -41 -47 0c0,-17 9,-32 23,-40l0 0zm203 1289c1,2 3,3 4,4l0 0c6,-5 15,-16 26,-30l0 0c22,-31 50,-79 79,-138l0 0c60,-119 129,-285 195,-468l0 0c118,-330 223,-718 243,-985l0 0 -679 395c-2,677 59,1151 131,1222l1 0z"/>
   <path class="fil0" d="M28292 43802l864 -259c14,-5 29,-2 41,7l0 0c12,9 19,23 19,37l0 0c-1,430 -252,1225 -457,1608l0 0c-73,126 -119,215 -213,227l0 0c-82,-4 -123,-73 -156,-157l0 0c-33,-87 -58,-206 -77,-349l0 0c-38,-286 -54,-669 -54,-1069l0 0 47 0 13 45 -13 -45 -47 0c0,-20 13,-39 33,-45l0 0zm60 80c1,582 40,1126 126,1349l0 0c28,79 61,100 68,97l0 0c0,-1 0,0 9,-6l0 0c8,-5 19,-16 33,-32l0 0c25,-30 56,-79 89,-139l0 0c64,-121 137,-291 203,-479l0 0c122,-345 226,-752 240,-1021l0 0 -768 231z"/>
   <path class="fil0" d="M31758 42745l863 -259c15,-5 30,-2 42,7l0 0c12,9 19,22 19,38l0 0c-2,429 -253,1224 -457,1607l0 0c-74,126 -119,215 -214,226l0 0c-82,-4 -123,-73 -155,-157l0 0c-33,-87 -58,-205 -77,-348l0 0c-39,-286 -55,-669 -55,-1069l1 0 46 0 14 45 -14 -45 -46 0c0,-21 13,-39 33,-45l0 0zm60 80c1,581 39,1126 125,1349l0 0c29,78 61,99 68,96l0 0c0,-1 1,1 10,-5l0 0c8,-6 19,-17 32,-32l0 0c26,-31 57,-79 89,-139l0 0c65,-121 137,-292 203,-479l0 0c123,-345 226,-752 241,-1021l0 0 -768 231z"/>
   <path class="fil0" d="M12127 39170c24,-459 131,-1259 321,-1647l0 0c64,-128 138,-224 251,-228l0 0 2372 0c136,6 259,133 367,276l0 0c106,146 190,308 206,416l0 0c31,216 76,467 100,825l0 0c8,131 11,326 11,549l0 0c0,606 -25,1410 -48,1630l0 0c-32,300 -187,1109 -187,1110l0 0 -15 27 -2496 2171c-13,11 -30,15 -45,9l0 0c-16,-4 -28,-17 -32,-33l0 1c-91,-352 -256,-1161 -264,-1712l0 0c-123,-22 -274,-118 -353,-287l0 0c-127,-280 -174,-776 -191,-1305l0 0c-8,-285 -16,-625 -16,-974l0 0c0,-277 5,-560 19,-828l0 0zm405 -1606c-59,119 -111,288 -155,477l0 0c-88,378 -141,834 -157,1133l0 0c-13,266 -18,548 -18,824l0 0c0,348 7,686 16,972l0 0c16,523 67,1017 182,1268 69,156 233,239 314,237l0 0c12,0 25,5 33,13l0 1c9,8 14,20 14,32l0 0c0,500 149,1271 243,1657l0 0 2427 -2110c22,-115 155,-820 183,-1086l0 0c22,-211 48,-1019 48,-1621l0 0c0,-221 -4,-416 -12,-543l0 0c-23,-353 -67,-599 -98,-818l0 0c-10,-76 -89,-239 -189,-373 -98,-137 -226,-243 -292,-237l0 0 -2372 0c-43,-4 -108,53 -167,174l0 0z"/>
   <path class="fil0" d="M12202 39190l3505 0c26,0 47,21 47,47l0 0c0,26 -21,47 -47,47l0 0 -3505 0c-25,0 -47,-21 -47,-47l0 0c0,-26 22,-47 47,-47l0 0z"/>
   <path class="fil0" d="M12202 40943l3458 0c26,0 47,21 47,46l0 1c0,25 -21,47 -47,47l0 0 -3458 0c-25,0 -47,-22 -47,-48l0 1c0,-26 22,-48 47,-48l0 1z"/>
   <path class="fil0" d="M12714 42475l2264 3c26,0 47,21 47,47l0 0c0,26 -21,46 -47,46l0 0 -2264 -3c-26,0 -47,-21 -47,-47l0 0c0,-25 21,-47 47,-46l0 0z"/>
   <path class="fil0" d="M12419 37714l3086 0c26,0 47,21 47,47l0 0c0,26 -21,47 -47,47l0 0 -3086 0c-25,0 -47,-21 -47,-47l0 0c0,-26 22,-47 47,-47l0 0z"/>
   <path class="fil0" d="M13833 38803c21,-36 25,-71 84,-81l0 0c60,10 64,45 85,81l0 0c17,39 34,92 52,160l0 0c35,135 72,329 106,571l0 0c67,483 122,1155 122,1918l0 0c0,829 -7,1391 -13,1739l0 0 -48 -1 -30 -36 30 36 48 1c-1,13 -7,26 -17,34l0 0 -597 517c-14,12 -34,15 -50,7l0 0c-17,-8 -28,-24 -28,-42l0 0c0,-123 -24,-736 -24,-2255l0 0c1,-1336 166,-2388 280,-2649l0 0zm39 183c-34,130 -70,322 -104,561l0 0c-67,478 -122,1147 -122,1905l0 0c0,1274 18,1907 23,2153l0 0 506 -437c7,-349 13,-904 13,-1716l0 0c0,-711 -48,-1344 -109,-1815l0 0c-50,-402 -120,-696 -161,-794l0 0c-14,31 -30,80 -46,143z"/>
   <path class="fil0" d="M23272 29835c25,-486 134,-1333 328,-1743l0 0c65,-134 140,-235 255,-239l0 0 2420 0c139,5 263,140 374,291l0 0c109,154 194,326 210,439l0 0c31,229 78,494 101,874l0 0c9,138 12,344 12,580l1 0c-1,642 -27,1492 -50,1726l0 0c-7,61 -18,143 -31,235l0 0 -16 28 -2864 2546 -31 -35 31 35c-13,11 -31,15 -47,9l0 0c-16,-6 -27,-19 -31,-36l0 0c-65,-368 -107,-786 -110,-1120l0 0c-125,-22 -280,-124 -360,-302 -129,-296 -177,-821 -194,-1380l0 0c-9,-303 -17,-662 -17,-1031l0 0c0,-294 5,-594 19,-877l0 0zm3607 202c0,-234 -4,-440 -13,-575l0 0c-23,-374 -68,-635 -100,-866l0 0c-10,-82 -91,-255 -193,-398l0 1c-100,-146 -232,-258 -298,-252l0 0 -2420 0c-43,-4 -111,57 -171,186l0 0c-60,126 -113,305 -158,506l0 0c-90,400 -144,883 -160,1200l0 0c-14,282 -19,581 -19,873l0 0c0,368 8,726 17,1028l0 0c15,554 67,1078 186,1345l0 0c71,166 239,253 320,251l0 0c13,0 25,5 34,14l0 0c8,9 13,20 13,33l1 0c0,308 35,705 94,1063l0 0 2790 -2479c12,-84 22,-159 27,-214l0 0c23,-223 50,-1069 50,-1706l0 0c0,-3 0,-7 0,-10l0 0z"/>
   <path class="fil0" d="M23349 29859l3574 0c27,0 47,21 47,47l0 0c0,26 -20,47 -47,47l0 0 -3574 0c-26,0 -47,-21 -47,-47l0 0c0,-26 21,-47 47,-47l0 0z"/>
   <path class="fil0" d="M23349 31714l3527 0c26,0 47,21 47,47l0 0c0,26 -21,47 -47,47l0 0 -3527 0c-26,0 -48,-21 -48,-47l0 0c0,-26 22,-47 48,-47l0 0z"/>
   <path class="fil0" d="M23570 28296l3148 0c26,0 47,21 47,47l0 0c0,26 -21,47 -47,47l0 0 -3148 0c-26,0 -47,-21 -47,-47l0 0c0,-26 21,-47 47,-47l0 0z"/>
   <path class="fil0" d="M25013 29448c21,-38 23,-74 85,-85l0 0c62,11 65,47 86,85l0 0c17,41 34,97 52,168l0 0c36,144 74,349 108,605l0 0c69,511 125,1223 125,2029l0 0c0,393 -1,729 -3,1015l0 0 -47 -1 -32 -34 32 34 47 1c0,13 -6,25 -15,34l0 0 -635 589c-14,12 -33,16 -50,9l0 0c-17,-8 -29,-24 -29,-43l0 0c-5,-377 -10,-899 -10,-1604l0 0c1,-1413 170,-2527 286,-2802l0 0zm38 191c-34,138 -72,341 -106,594l0 0c-68,507 -124,1215 -124,2017l0 0c0,641 4,1131 9,1497l0 0 542 -503c2,-281 4,-610 3,-994l0 0c1,-753 -49,-1423 -111,-1921l0 0c-52,-429 -123,-740 -165,-844l0 0c-14,33 -31,86 -48,154l0 0z"/>
   <path class="fil0" d="M63010 38812c23,-358 68,-609 99,-825l0 0c17,-108 100,-270 207,-416l0 0c108,-143 231,-270 367,-276l0 0 2372 0c112,4 187,100 251,228l0 0c64,129 117,304 162,497l0 0c90,386 143,845 159,1150l0 0c14,268 19,551 19,828l0 0c0,349 -8,688 -17,974l0 0c-16,529 -63,1025 -190,1305l0 0c-79,169 -230,265 -353,287l0 0c-8,551 -173,1360 -265,1711l0 1c-4,15 -16,28 -31,32l0 0c-16,6 -32,2 -45,-9l0 0 -2496 -2171 -16 -27c0,-1 -154,-810 -186,-1110l0 0c-23,-220 -49,-1023 -49,-1630l0 0c0,-222 4,-418 12,-549l0 0zm673 -1422c-66,-6 -194,100 -292,237l0 0c-100,134 -179,297 -189,373l0 0c-31,219 -75,465 -98,818l0 0c-8,128 -12,322 -12,543l0 0c0,603 26,1410 48,1621l0 0c28,266 161,971 183,1086l0 0 2426 2110c95,-386 244,-1157 244,-1657l0 0c0,-12 5,-24 13,-33l1 1c8,-9 20,-14 32,-14l1 0c80,2 245,-81 314,-237l0 0c115,-251 166,-745 181,-1268l1 0c8,-286 16,-624 16,-972l0 0c0,-276 -5,-558 -18,-824l0 0c-23,-448 -135,-1252 -312,-1610l0 0c-59,-121 -124,-178 -167,-174l0 0 -2372 0z"/>
   <path class="fil0" d="M63047 39190l3504 0c26,0 47,21 47,47l0 0c0,26 -21,47 -47,47l0 0 -3504 0c-26,0 -47,-21 -47,-47l0 0c0,-26 21,-47 47,-47l0 0z"/>
   <path class="fil0" d="M63094 40943l3457 0c26,0 47,21 47,46l0 1c0,25 -21,47 -47,47l0 0 -3457 0c-26,0 -47,-22 -47,-48l0 1c0,-26 21,-48 46,-48l1 1z"/>
   <path class="fil0" d="M63776 42478l2264 -3c25,-1 47,21 47,46l0 0c0,26 -21,47 -47,47l0 0 -2264 3c-26,0 -47,-20 -47,-46l0 0c0,-1 0,-1 0,-1l0 0c0,-26 21,-46 47,-46l0 0z"/>
   <path class="fil0" d="M63249 37714l3085 0c26,0 47,21 47,47l0 0c0,26 -21,47 -47,47l0 0 -3085 0c-26,0 -47,-21 -47,-47l0 0c0,-26 20,-47 47,-47l0 0z"/>
   <path class="fil0" d="M64752 38803c20,-36 24,-71 84,-81l0 0c60,10 64,45 85,81l0 0c17,39 34,92 52,160l0 0c35,135 71,329 105,571l0 0c68,483 123,1155 123,1918l0 0c0,1519 -24,2132 -24,2255l0 0c0,18 -11,34 -28,42l0 0c-16,8 -36,5 -50,-7l0 0 -597 -517c-10,-8 -16,-21 -17,-34l0 0c-6,-348 -13,-910 -13,-1739l0 0c1,-1336 166,-2388 280,-2649l0 0zm39 183c-34,130 -70,322 -104,561l0 0c-67,478 -122,1147 -122,1905l0 0c0,812 7,1367 14,1716l0 0 506 437c5,-246 22,-879 22,-2153l0 0c0,-711 -48,-1344 -109,-1815l0 0c-51,-402 -120,-696 -161,-794l0 0c-14,31 -30,80 -46,143l0 0z"/>
   <path class="fil0" d="M51794 29457c23,-380 69,-645 100,-874l0 0c17,-113 102,-285 211,-439l0 0c110,-151 234,-286 374,-291l0 0 2420 0c115,4 190,105 255,239l0 0c65,138 120,322 165,526l0 0c92,408 146,894 163,1216 14,284 19,584 19,877l0 0c0,370 -8,729 -17,1032l0 0c-17,559 -65,1084 -194,1380l0 0c-80,178 -235,280 -360,302l0 0c-5,335 -63,753 -129,1120l0 0 -46 -8 46 8c-3,17 -14,30 -31,36l0 0c-16,6 -33,2 -46,-10l0 0 -2847 -2580 -15 -28c-14,-91 -24,-136 -31,-200l0 0c-23,-234 -49,-1084 -49,-1726l0 0c0,-235 3,-442 12,-580l0 0zm3594 382c-23,-475 -136,-1326 -319,-1706l0 0c-59,-129 -127,-190 -170,-186l0 0 -2420 0c-67,-6 -198,106 -298,251l0 1c-102,142 -183,315 -194,397l0 0c-31,231 -77,492 -100,866l0 0c-8,135 -12,341 -12,575l0 0c0,638 27,1492 49,1716l0 0c6,53 15,97 28,179l0 0 2772 2513c62,-358 112,-755 112,-1062l0 0c0,-13 5,-24 14,-33l0 0c9,-9 21,-14 33,-14l0 0c82,2 250,-85 321,-251l0 0c118,-267 170,-791 186,-1345l0 0c9,-302 17,-660 17,-1029l0 0c0,-292 -5,-590 -19,-872l0 0z"/>
   <path class="fil0" d="M51830 29859l3575 0c26,0 47,21 47,47l0 0c0,26 -21,47 -47,47l0 0 -3575 0c-26,0 -47,-21 -47,-47l0 0c0,-26 21,-47 47,-47l0 0z"/>
   <path class="fil0" d="M51878 31714l3527 0c26,0 47,21 47,47l0 0c0,26 -21,47 -47,47l0 0 -3527 0c-26,0 -47,-21 -47,-47l0 0c0,-26 21,-47 47,-47l0 0z"/>
   <path class="fil0" d="M53480 33339l1403 -3c26,0 47,21 47,47l0 0c0,26 -21,47 -47,47l0 0 -1403 3c-26,0 -47,-21 -47,-47l0 0c0,-26 21,-47 47,-47l0 0z"/>
   <path class="fil0" d="M52036 28296l3148 0c25,0 47,21 47,47l0 0c0,26 -22,47 -47,47l0 0 -3148 0c-26,0 -47,-21 -47,-47l0 0c0,-26 21,-47 47,-47l0 0z"/>
   <path class="fil0" d="M53570 29448c21,-38 24,-74 86,-85l0 0c61,11 64,47 85,85l0 0c18,41 35,97 53,168l0 0c36,144 73,349 108,605l0 0c68,511 125,1223 125,2029l0 0c0,705 -5,1227 -11,1604l0 0c0,19 -11,35 -28,43l0 0c-17,7 -37,3 -50,-9l0 0 -635 -589c-9,-9 -15,-21 -15,-34l0 0c-2,-286 -4,-622 -4,-1015l0 0c1,-1413 170,-2527 286,-2802l0 0zm38 191c-34,138 -72,341 -106,594l0 0c-68,507 -124,1215 -124,2017l0 0c0,384 1,713 3,994l1 0 542 503c5,-366 9,-856 9,-1497l0 0c0,-753 -49,-1423 -112,-1921l0 0c-52,-429 -122,-740 -165,-844l0 0c-14,33 -31,86 -48,154l0 0z"/>
   <path class="fil0" d="M43131 24159c0,-38 22,-71 56,-86l0 0c34,-15 73,-9 101,16l0 0c9123,8150 24215,22043 34542,30098l0 0c47,40 37,54 49,88l0 0c7,34 15,89 23,189l0 0c16,200 31,580 32,1315l0 0c33,96 219,639 405,1236l0 0c206,661 412,1368 415,1655l0 0c0,507 -14,1426 -14,1427l0 0c-1,41 -28,76 -68,88l0 0c-39,12 -82,-4 -104,-38l0 0 -1187 -1801 -22104 -12926 -12079 -3679c-40,-12 -67,-49 -67,-90l0 0c0,-5323 0,-12381 0,-17493l0 1zm94 17492l94 0 -94 0zm94 -69l12023 3662 20 8 22133 12943 31 29 1031 1565c4,-314 9,-799 9,-1119l0 0c3,-218 -201,-950 -406,-1599l0 0c-204,-654 -408,-1244 -409,-1246l0 0 -5 -30c1,-1080 -35,-1401 -49,-1474l0 0c-10283,-8024 -25247,-21791 -34378,-29953l0 0c0,5071 0,11971 0,17214l0 0z"/>
   <path class="fil0" d="M414 57015c187,-597 373,-1141 406,-1236l0 0c1,-1107 34,-1405 55,-1504l0 0c11,-34 2,-48 43,-84l0 0c10332,-8059 25425,-21952 34548,-30102l0 0c28,-25 67,-31 101,-16l0 0c34,15 55,48 55,85l0 1c0,5111 0,12169 0,17492l0 0 -93 0 -28 -90 28 90 93 0c0,41 -26,78 -66,90l0 0 -12079 3679 -22105 12926 -1186 1801c-23,34 -65,50 -105,38l0 0c-39,-11 -67,-48 -67,-88l0 0c0,-1 -14,-920 -14,-1427l0 0c3,-287 209,-994 414,-1655l0 0zm625 -2536c-16,192 -32,573 -32,1316l0 0 -5 30c0,2 -204,592 -409,1246l0 0c-204,649 -408,1380 -405,1599l0 0c0,320 5,805 9,1119l0 0 1031 -1565 30 -29 22134 -12943 19 -8 12024 -3662c0,-5243 0,-12143 0,-17214l0 0c-9129,8160 -24090,21923 -34378,29952l0 0c-5,24 -12,72 -18,159l0 0z"/>
   <path class="fil0" d="M39868 79355c457,-2971 1446,-6992 1665,-7951l0 0c69,-300 175,-785 301,-1397l0 0c7,-33 31,-60 63,-70l0 0c32,-11 67,-3 92,20l0 0 10413 9558c241,189 342,451 339,812l0 0c0,347 0,2509 0,2510l0 0c0,29 -13,56 -36,74l0 0c-24,18 -54,24 -82,16l0 0 -12687 -3467c-41,-11 -69,-48 -69,-90l0 0c0,-5 0,-10 1,-15l0 0zm93 15l93 14 -93 -14zm1755 -7924c-218,952 -1189,4905 -1650,7855l0 1 12488 3412c0,-463 0,-2090 0,-2387l0 0c-3,-335 -76,-507 -274,-670l0 0 -10296 -9450c-112,537 -205,964 -268,1239l0 0z"/>
   <path class="fil0" d="M35431 56575c0,-1443 0,-7619 0,-14655l0 0c0,-5913 0,-12432 0,-17260l0 0c0,-2148 0,-3960 0,-5236l0 0c0,-1276 0,-2014 0,-2015l0 0c2,-10650 1743,-15084 2953,-16661l0 0c407,-525 744,-741 991,-748l0 0c248,7 583,223 991,748l0 0c405,526 866,1369 1303,2654l0 0c874,2570 1650,6907 1650,14007l0 0c0,1 0,739 0,2015l0 0c0,1276 0,3088 0,5236l0 0c0,4828 0,11347 0,17260l0 0c0,7036 0,13212 0,14655l0 0c0,7257 -790,10986 -1302,13470l0 0c-126,614 -232,1099 -301,1401l0 0c-244,1068 -1244,5232 -1663,7942l0 0c-335,1683 -585,2951 -586,2954l0 0 -92 -18 92 18c-9,44 -47,76 -92,76l0 0c-45,0 -83,-32 -92,-76l0 0c0,-3 -251,-1271 -587,-2958l0 0c-418,-2706 -1417,-6870 -1662,-7938l0 0c-69,-302 -175,-787 -301,-1401l0 0c-511,-2483 -1302,-6211 -1302,-13466l0 0c0,-2 0,-3 0,-4l0 0zm4787 -55713c-384,-506 -717,-681 -843,-674l0 0c-126,-7 -458,168 -843,674l1 0c-388,504 -842,1330 -1274,2601l0 0c-865,2540 -1640,6860 -1640,13946l0 0c0,1 0,739 0,2015l0 0c0,1276 0,3088 0,5236l0 0c0,4828 0,11347 0,17260l0 0c0,7036 0,13212 0,14655l0 0c0,7245 787,10950 1298,13432l0 0c125,613 232,1097 300,1397l0 0c244,1067 1244,5233 1664,7948l0 0c213,1069 392,1972 494,2489l0 0c102,-517 281,-1419 493,-2486l0 0c421,-2718 1421,-6884 1665,-7951l0 0c68,-300 175,-784 301,-1397l0 0c510,-2482 1297,-6187 1297,-13432l0 0c0,-1443 0,-7619 0,-14655l0 0c0,-5913 0,-12432 0,-17260l0 0c0,-2148 0,-3960 0,-5236l0 0c0,-1276 0,-2014 0,-2015l0 0c0,-5 0,-9 0,-14l0 0c0,-10618 -1748,-15021 -2913,-16533l0 0z"/>
   <path class="fil0" d="M52065 79414c0,-25 21,-46 47,-46l0 0c26,0 47,21 47,46l0 0 0 3272c0,26 -21,47 -47,47l0 0c-26,0 -47,-21 -47,-47l0 0 0 -3272z"/>
   <path class="fil0" d="M41705 70960c17,-19 46,-21 66,-5l0 0 10372 8974c19,17 22,47 5,66l0 1c-17,19 -47,21 -67,4l0 0 -10372 -8974c-10,-9 -16,-22 -16,-35l0 0c0,-11 4,-22 12,-31l0 0z"/>
   <path class="fil0" d="M40490 76399c11,-24 39,-34 63,-23l0 0 10363 4791c17,8 27,24 27,43l0 0 0 1100c0,26 -21,47 -47,47l0 0c-26,0 -47,-21 -47,-47l0 0 0 -1071 -10336 -4778 0 0c-17,-8 -27,-25 -27,-42l0 0c0,-7 1,-14 4,-20l0 0z"/>
   <path class="fil0" d="M43960 78575c0,-12 4,-23 12,-32l0 0 348 -376 -1 0c18,-19 48,-20 67,-3l0 0c19,18 20,48 2,67l0 0 -334 362 0 1893c0,26 -21,47 -47,47l0 0c-26,0 -47,-21 -47,-47l0 0 0 -1911z"/>
   <path class="fil0" d="M42755 46740c0,-135 109,-244 243,-244l0 0 198 0 0 0c26,0 47,21 47,47l0 0c0,26 -21,47 -47,47l0 0 -198 0c-82,0 -150,67 -150,150l0 0 0 663c0,82 68,150 150,150l0 0 198 0c26,0 47,21 47,47l0 0c0,26 -21,47 -47,47l0 0 -198 0c-134,0 -243,-110 -243,-244l0 0 0 -663z"/>
   <path class="fil0" d="M42754 34965c0,-134 110,-243 244,-243l0 0 198 0 0 0c26,0 47,21 47,47l0 0c0,25 -21,46 -47,46l0 0 -198 0c-83,1 -150,67 -150,150l0 0 0 663c0,83 67,150 150,150l0 0 198 0c26,0 47,21 47,47l0 0c0,26 -21,47 -47,47l0 0 -198 0c-134,0 -244,-109 -244,-244l0 0 0 -663z"/>
   <path class="fil0" d="M42755 22013c0,-134 109,-244 243,-244l0 0 198 0 0 1c26,0 47,21 47,47l0 0c0,25 -21,46 -47,46l0 0 -198 0c-83,0 -150,68 -150,150l0 0 0 664c0,82 67,149 150,149l0 0 198 0c26,0 47,21 47,47l0 0c0,26 -21,47 -47,47l0 0 -198 0c-134,0 -243,-109 -243,-243l0 0 0 -664z"/>
   <path class="fil0" d="M42751 10798l197 -17 0 0c26,-2 49,17 51,42l0 0c2,26 -17,49 -43,51l0 0 -197 18c-78,6 -137,72 -137,149l0 0c0,4 1,8 1,13l0 0 58 661c6,77 72,136 149,136l0 0c4,0 9,0 13,0l0 0 197 -17c26,-2 49,16 51,42l0 0c3,26 -17,49 -42,51l0 0 -200 18c-5,0 -11,0 -19,0l0 0c-125,0 -231,-95 -243,-222l0 0 -58 -662c0,-6 0,-13 0,-20l0 0c0,-125 95,-232 222,-243l0 0z"/>
   <path class="fil0" d="M42250 64704l104 -949c18,-146 174,-239 343,-240l0 0c2,0 5,0 7,0l0 1 228 21c26,3 45,25 42,51l0 0c-2,26 -25,45 -50,42l0 1 -231 -22c-135,0 -243,83 -246,155l0 0 -104 950c0,3 0,5 0,9l0 0c0,64 81,137 216,138l0 0 210 12c26,2 46,24 44,50l0 0c-1,25 -23,45 -49,44l0 0 -208 -12c-161,-1 -304,-91 -307,-232l0 0c0,-6 0,-12 1,-19l0 0z"/>
   <path class="fil0" d="M39335 35915c8,-14 23,-23 40,-23l0 0c17,0 32,8 40,23l0 0c75,129 104,354 104,577l0 0c-1,237 -30,461 -106,571l0 0 -38 -28 38 28c-9,12 -23,19 -38,19l0 0c-15,0 -29,-7 -38,-19l0 0c-76,-110 -105,-334 -106,-571l0 0c1,-224 29,-448 104,-577l0 0zm40 1008c31,-102 52,-267 51,-431l0 0c1,-157 -18,-319 -51,-432l0 0c-33,112 -51,274 -51,432l0 0c-1,164 20,329 51,431l0 0z"/>
   <path class="fil0" d="M39335 19451c8,-14 23,-23 40,-23l0 0c17,0 32,8 40,23l0 0c76,129 104,354 105,577l0 0c-2,237 -31,461 -107,571l0 0 -38 -28 38 28c-9,12 -23,19 -38,19l0 0c-15,0 -29,-7 -38,-19l0 0c-76,-110 -104,-335 -106,-571l0 0c1,-223 29,-448 104,-577l0 0zm40 1008c31,-102 52,-267 51,-431l0 0c1,-157 -18,-319 -51,-432l0 0c-33,113 -51,274 -51,432l1 0c-2,164 19,329 50,431l0 0z"/>
   <path class="fil0" d="M41485 13648c0,-53 43,-95 96,-95l0 0 162 0c52,0 96,42 96,95l0 0 0 267c0,53 -44,95 -96,95l0 0 -162 0c-53,0 -96,-42 -96,-95l0 0 47 0 46 0c1,0 1,2 3,2l0 0 162 0c2,0 2,-2 2,-2l0 0 0 -267c0,0 0,-1 -2,-1l0 0 -162 0c-2,0 -2,1 -3,1l0 0 0 267 -46 0 -47 0 0 -267z"/>
   <path class="fil0" d="M41485 14258c0,-53 43,-95 96,-95l0 0 162 0c53,0 96,42 96,95l0 0 0 267c0,53 -43,95 -96,95l0 0 -162 0c-53,0 -96,-42 -96,-95l0 0 47 0 47 0c0,0 0,1 2,1l0 0 162 0c2,0 2,-1 2,-1l0 0 0 -267c0,0 0,-1 -2,-1l0 0 -162 0c-2,0 -2,1 -2,1l0 0 0 267 -47 0 -47 0 0 -267z"/>
   <path class="fil0" d="M41485 14869c0,-54 43,-96 96,-96l0 0 162 0c53,0 96,42 96,96l0 0 0 266c0,53 -43,95 -96,95l0 0 -162 0c-53,0 -96,-42 -96,-95l0 0 47 0 47 0c0,0 0,1 2,2l0 0 162 0c2,-1 2,-2 2,-2l0 0 0 -266c0,-1 0,-2 -2,-2l0 0 -162 0c-2,0 -2,1 -2,2l0 0 0 266 -47 0 -47 0 0 -266z"/>
   <path class="fil0" d="M41485 15478c0,-53 43,-95 96,-95l0 0 162 0c52,0 96,42 96,95l0 0 0 267c0,53 -44,95 -96,95l0 0 -162 0c-53,0 -96,-42 -96,-95l0 0 47 0 47 0c0,0 0,2 2,2l0 0 162 0c2,0 2,-2 2,-2l0 0 0 -267c0,0 0,-1 -2,-1l0 0 -162 0c-2,0 -2,1 -2,1l0 0 0 267 -47 0 -47 0 0 -267z"/>
   <path class="fil0" d="M41485 16088c0,-53 44,-95 96,-95l0 0 162 0c52,0 96,42 96,95l0 0 0 267c0,53 -43,95 -96,95l0 0 -162 0c-53,0 -96,-42 -96,-95l0 0 47 0 47 0c0,0 0,2 2,2l0 0 162 0c2,0 2,-2 2,-2l0 0 0 -267c0,0 0,-1 -2,-1l0 0 -162 0c-2,0 -2,1 -2,1l0 0 0 267 -47 0 -47 0 0 -267z"/>
   <path class="fil0" d="M41485 16698c0,-53 43,-95 96,-95l0 0 162 0c52,0 96,42 96,95l0 0 0 267c0,53 -44,95 -96,95l0 0 -162 0c-53,0 -96,-42 -96,-95l0 0 47 0 47 0c0,0 0,2 2,2l0 0 162 0c2,0 2,-2 3,-2l0 0 0 -267c-1,0 -1,-1 -3,-1l0 0 -162 0c-2,0 -2,1 -2,1l0 0 0 267 -47 0 -47 0 0 -267z"/>
   <path class="fil0" d="M41485 17309c0,-54 43,-96 96,-96l0 0 162 0c52,0 96,42 96,96l0 0 0 266c0,53 -44,95 -96,95l0 0 -162 0c-53,0 -96,-42 -96,-95l0 0 47 0 46 0c1,0 1,1 3,1l0 0 162 0c2,0 2,-1 2,-1l0 0 0 -266c0,-1 0,-2 -2,-3l0 0 -162 0c-2,1 -2,2 -3,3l0 0 0 266 -46 0 -47 0 0 -266z"/>
   <path class="fil0" d="M41485 17918c0,-53 43,-95 96,-95l0 0 162 0c52,0 96,42 96,95l0 0 0 267c0,53 -44,95 -96,95l0 0 -162 0c-53,0 -96,-42 -96,-95l0 0 47 0 46 0c1,0 1,1 3,2l0 0 162 0c2,-1 2,-2 2,-2l0 0 0 -267c0,0 0,-1 -2,-1l0 0 -162 0c-2,0 -2,1 -3,1l0 0 0 267 -46 0 -47 0 0 -267z"/>
   <path class="fil0" d="M41485 18528c0,-53 43,-95 96,-95l0 0 162 0c53,0 96,42 96,95l0 0 0 267c0,53 -43,95 -96,95l0 0 -162 0c-53,0 -96,-42 -96,-95l0 0 47 0 46 0c1,0 1,1 3,2l0 0 162 0c2,-1 2,-1 2,-2l0 0 0 -267c0,0 0,-1 -2,-1l0 0 -162 0c-2,0 -2,1 -3,1l0 0 0 267 -46 0 -47 0 0 -267z"/>
   <path class="fil0" d="M41485 19138c0,-53 43,-95 96,-95l0 0 162 0c52,0 96,42 96,95l0 0 0 267c0,53 -44,95 -96,95l0 0 -162 0c-53,0 -96,-42 -96,-95l0 0 47 0 46 0c1,0 1,1 3,1l0 0 162 0c2,0 2,-1 2,-1l0 0 0 -267c0,0 0,-1 -2,-1l0 0 -162 0c-2,0 -2,1 -3,1l0 0 0 267 -46 0 -47 0 0 -267z"/>
   <path class="fil0" d="M41485 21387c0,-54 43,-96 96,-96l0 0 162 0c53,0 96,42 96,96l0 0 0 266c0,53 -44,95 -96,95l0 0 -162 0c-52,0 -96,-42 -96,-95l0 0 47 0 46 0c1,0 1,1 3,2l0 0 162 0c2,-1 2,-2 2,-2l0 0 0 -266c0,-1 0,-2 -2,-2l0 0 -162 0c-2,0 -2,1 -3,2l0 0 0 266 -46 0 -47 0 0 -266z"/>
   <path class="fil0" d="M41485 21997c0,-54 43,-96 96,-96l0 0 162 0c52,0 96,42 96,96l0 0 0 266c0,53 -43,95 -96,95l0 0 -162 0c-53,0 -96,-42 -96,-95l0 0 47 0 47 0c0,0 0,2 2,2l0 0 162 0c2,0 2,-2 2,-2l0 0 0 -266c0,-1 0,-2 -2,-2l-162 0c-2,0 -2,1 -2,2l0 266 -47 0 -47 0 0 -266z"/>
   <path class="fil0" d="M41485 22606c0,-53 43,-95 96,-95l0 0 162 0c53,0 96,42 96,95l0 0 0 267c0,53 -43,95 -96,95l0 0 -162 0c-53,0 -96,-42 -96,-95l0 0 47 0 47 0c0,0 0,2 2,2l0 0 162 0c2,0 2,-2 2,-2l0 0 0 -267c0,0 0,-1 -2,-1l0 0 -162 0c-2,0 -2,1 -2,1l0 0 0 267 -47 0 -47 0 0 -267z"/>
   <path class="fil0" d="M41485 23217c0,-54 44,-96 96,-96l0 0 162 0c52,0 96,42 96,96l0 0 0 266c0,53 -44,95 -96,95l0 0 -162 0c-53,0 -96,-42 -96,-95l47 0 47 0c0,0 0,2 2,2l0 0 162 0c2,0 2,-2 3,-2l0 0 0 -266c-1,-1 -1,-2 -3,-2l0 0 -162 0c-2,0 -3,1 -3,2l1 0 0 266 -47 0 -47 0 0 -266z"/>
   <path class="fil0" d="M41485 23826c0,-53 43,-95 96,-95l0 0 162 0c52,0 96,42 96,95l0 0 0 267c0,53 -44,95 -96,95l0 0 -162 0c-53,0 -96,-42 -96,-95l0 0 47 0 47 0c0,0 0,2 2,2l0 0 162 0c2,0 2,-2 2,-2l0 0 0 -267c0,0 0,-1 -2,-1l0 0 -162 0c-2,0 -2,1 -2,1l0 0 0 267 -47 0 -47 0 0 -267z"/>
   <path class="fil0" d="M41485 24436c0,-53 43,-95 96,-95l0 0 162 0c53,0 96,42 96,95l0 0 0 267c0,53 -43,95 -96,95l-162 0c-53,0 -96,-42 -96,-95l0 0 47 0 47 0c0,0 0,1 2,2l162 0c2,0 2,-2 2,-2l0 0 0 -267c0,0 0,-1 -2,-1l0 0 -162 0c-2,0 -2,1 -2,1l0 0 0 267 -47 0 -47 0 0 -267z"/>
   <path class="fil0" d="M41485 25046c0,-53 43,-95 96,-95l0 0 162 0c52,0 96,42 96,95l0 0 0 267c0,53 -44,95 -96,95l0 0 -162 0c-52,0 -96,-42 -96,-95l0 0 47 0 47 0c0,0 0,1 2,1l0 0 162 0c2,0 2,-1 2,-1l0 0 0 -267c0,0 0,-1 -2,-1l0 0 -162 0c-2,0 -2,1 -2,1l0 267 -47 0 -47 0 0 -267z"/>
   <path class="fil0" d="M41485 25657c0,-54 43,-96 96,-96l0 0 162 0c53,0 96,42 96,95l0 1 0 266c0,53 -43,95 -96,95l0 0 -162 0c-53,0 -96,-42 -96,-95l0 0 47 0 46 0c1,0 1,2 3,2l0 0 162 0c2,0 2,-2 2,-2l0 0 0 -266c0,-1 0,-2 -2,-2l0 0 -162 0c-2,0 -2,1 -3,1l0 1 0 266 -46 0 -47 0 0 -266z"/>
   <path class="fil0" d="M41485 26266c0,-53 44,-95 96,-95l0 0 162 0c52,0 96,42 96,95l0 0 0 267c0,53 -44,95 -96,95l0 0 -162 0c-53,0 -96,-42 -96,-95l0 0 47 0 47 0c0,0 0,1 2,1l0 1 162 0c2,0 2,-2 2,-2l0 0 0 -267c0,0 0,-1 -2,-1l0 0 -162 0c-2,0 -3,1 -3,1l1 0 0 267 -47 0 -47 0 0 -267z"/>
   <path class="fil0" d="M41485 26876c0,-53 43,-95 96,-95l0 0 162 0c53,0 96,42 96,95l0 0 0 267c0,53 -43,96 -96,96l0 0 -162 0c-53,0 -96,-43 -96,-96l0 0 47 0 47 0c0,0 0,1 2,1l0 1 162 0c2,0 2,-2 2,-2l0 0 0 -267c0,0 0,-1 -2,-1l0 0 -162 0c-2,0 -2,1 -2,1l0 0 0 267 -47 0 -47 0 0 -267z"/>
   <path class="fil0" d="M41485 27486c0,-53 43,-95 96,-95l0 0 162 0c52,0 96,42 96,95l0 0 0 267c0,53 -44,95 -96,95l0 0 -162 0c-53,0 -96,-42 -96,-95l0 0 47 0 46 0c1,0 1,1 3,2l0 0 162 0c2,-1 2,-2 2,-2l0 0 0 -267c0,0 0,-1 -2,-1l0 0 -162 0c-2,0 -2,1 -3,1l0 0 0 267 -46 0 -47 0 0 -267z"/>
   <path class="fil0" d="M36915 13648c0,-53 43,-95 96,-95l0 0 162 0c52,0 96,42 96,95l0 0 0 267 -47 0 -47 0 0 -267c0,0 0,-1 -2,-1l0 0 -162 0c-2,0 -3,1 -3,1l0 0 0 267c0,0 1,2 3,2l0 0 162 0c2,0 2,-2 2,-2l0 0 47 0 47 0c0,53 -44,95 -96,95l0 0 -162 0c-53,0 -96,-42 -96,-95l0 0 0 -267z"/>
   <path class="fil0" d="M36915 14258c0,-53 43,-95 96,-95l0 0 162 0c52,0 96,42 96,95l0 0 0 267 -47 0 -47 0 0 -267c0,0 0,-1 -2,-1l0 0 -162 0c-2,0 -3,1 -3,1l1 0 0 267c0,0 0,1 2,1l0 0 162 0c2,0 2,-1 2,-1l0 0 47 0 47 0c0,53 -44,95 -96,95l0 0 -162 0c-53,0 -96,-42 -96,-95l0 0 0 -267z"/>
   <path class="fil0" d="M36915 14869c0,-54 43,-96 96,-96l0 0 162 0c52,0 96,42 96,96l0 0 0 266 -47 0 -47 0 0 -266c0,-1 0,-2 -2,-2l0 0 -162 0c-2,0 -3,1 -3,2l0 0 0 266c0,0 1,1 3,2l0 0 162 0c2,-1 2,-2 2,-2l0 0 47 0 47 0c0,53 -44,95 -96,95l0 0 -162 0c-53,0 -96,-42 -96,-95l0 0 0 -266z"/>
   <path class="fil0" d="M36915 15478c0,-53 43,-95 96,-95l0 0 162 0c52,0 96,42 96,95l0 0 0 267 -47 0 -47 0 0 -267c0,0 0,-1 -2,-1l0 0 -162 0c-2,0 -3,1 -3,1l0 0 0 267c0,0 1,2 3,2l0 0 162 0c2,0 2,-2 2,-2l0 0 47 0 47 0c0,53 -44,95 -96,95l0 0 -162 0c-53,0 -96,-42 -96,-95l0 0 0 -267z"/>
   <path class="fil0" d="M36915 16088c0,-53 43,-95 96,-95l0 0 162 0c52,0 96,42 96,95l0 0 0 267 -47 0 -47 0 0 -267c0,0 0,-1 -2,-1l0 0 -162 0c-2,0 -3,1 -3,1l0 0 0 267c1,0 1,2 3,2l0 0 162 0c1,0 2,-2 2,-2l0 0 47 0 47 0c0,53 -44,95 -96,95l0 0 -162 0c-53,0 -96,-42 -96,-95l0 0 0 -267z"/>
   <path class="fil0" d="M36915 16698c0,-53 43,-95 96,-95l0 0 162 0c52,0 96,42 96,95l0 0 0 267 -47 0 -47 0 0 -267c0,0 -1,-1 -2,-1l-162 0c-2,0 -3,1 -3,1l1 0 0 267c0,0 0,2 2,2l0 0 162 0c1,0 2,-2 2,-2l0 0 47 0 47 0c0,53 -44,95 -96,95l0 0 -162 0c-53,0 -96,-42 -96,-95l0 0 0 -267z"/>
   <path class="fil0" d="M36915 17309c0,-54 43,-96 96,-96l0 0 162 0c52,0 96,42 96,96l0 0 0 266 -47 0 -47 0 0 -266c0,-1 0,-2 -2,-3l0 0 -162 0c-2,1 -3,2 -3,3l1 0 0 266c0,0 0,1 2,1l0 0 162 0c2,0 2,-1 2,-1l0 0 47 0 47 0c0,53 -44,95 -96,95l0 0 -162 0c-53,0 -96,-42 -96,-95l0 0 0 -266z"/>
   <path class="fil0" d="M36915 17918c0,-53 43,-95 96,-95l0 0 162 0c52,0 96,42 96,95l0 0 0 267 -47 0 -47 0 0 -267c0,0 0,-1 -2,-1l0 0 -162 0c-2,0 -3,1 -3,1l1 0 0 267c0,0 0,1 2,2l0 0 162 0c2,-1 2,-2 2,-2l0 0 47 0 47 0c0,53 -44,95 -96,95l0 0 -162 0c-53,0 -96,-42 -96,-95l0 0 0 -267z"/>
   <path class="fil0" d="M36915 18528c0,-53 43,-95 96,-95l0 0 162 0c52,0 96,42 96,95l0 0 0 267 -47 0 -47 0 0 -267c0,0 0,-1 -2,-1l0 0 -162 0c-2,0 -3,1 -3,1l0 0 0 267c0,1 1,1 3,2l0 0 162 0c2,-1 2,-2 2,-2l0 0 47 0 47 0c0,53 -44,95 -96,95l0 0 -162 0c-53,0 -96,-42 -96,-95l0 0 0 -267z"/>
   <path class="fil0" d="M36915 19138c0,-53 43,-95 96,-95l0 0 162 0c52,0 96,42 96,95l0 0 0 267 -47 0 -47 0 0 -267c0,0 0,-1 -2,-1l0 0 -162 0c-2,0 -2,1 -3,1l0 0 0 267c1,0 1,1 3,1l0 0 162 0c2,0 2,-1 2,-1l0 0 47 0 47 0c0,53 -44,95 -96,95l0 0 -162 0c-53,0 -96,-42 -96,-95l0 0 0 -267z"/>
   <path class="fil0" d="M36915 21387c0,-54 43,-96 96,-96l0 0 162 0c52,0 96,42 96,96l0 0 0 266 -47 0 -47 0 0 -266c0,-1 -1,-2 -2,-2l0 0 -162 0c-2,0 -3,1 -3,2l0 0 0 266c0,0 1,1 3,2l0 0 162 0c2,-1 2,-2 2,-2l0 0 47 0 47 0c0,53 -44,95 -96,95l0 0 -162 0c-53,0 -96,-42 -96,-95l0 0 0 -266z"/>
   <path class="fil0" d="M36915 21997c0,-54 43,-96 96,-96l0 0 162 0c52,0 96,42 96,96l0 0 0 266 -47 0 -47 0 0 -266c0,-1 0,-2 -2,-2l0 0 -162 0c-2,0 -3,1 -3,2l1 0 0 266c0,0 0,2 2,2l0 0 162 0c2,0 2,-2 2,-2l0 0 47 0 47 0c0,53 -44,95 -96,95l0 0 -162 0c-53,0 -96,-42 -96,-95l0 0 0 -266z"/>
   <path class="fil0" d="M36915 22606c0,-53 43,-95 96,-95l0 0 162 0c52,0 96,42 96,95l0 0 0 267 -47 0 -47 0 0 -267c0,0 0,-1 -2,-1l0 0 -162 0c-2,0 -3,1 -3,1l1 0 0 267c0,0 0,2 2,2l0 0 162 0c2,0 2,-2 2,-2l0 0 47 0 47 0c0,53 -44,95 -96,95l0 0 -162 0c-53,0 -96,-42 -96,-95l0 0 0 -267z"/>
   <path class="fil0" d="M36915 23217c0,-54 43,-96 96,-96l0 0 162 0c52,0 96,42 96,96l0 0 0 266 -47 0 -47 0 0 -266c0,-1 0,-2 -2,-2l0 0 -162 0c-2,0 -3,1 -3,2l0 0 0 266c0,0 1,2 3,2l0 0 162 0c1,0 2,-2 2,-2l47 0 47 0c0,53 -44,95 -96,95l0 0 -162 0c-53,0 -96,-42 -96,-95l0 0 0 -266z"/>
   <path class="fil0" d="M36915 23826c0,-53 43,-95 96,-95l0 0 162 0c52,0 96,42 96,95l0 0 0 267 -47 0 -47 0 0 -267c0,0 0,-1 -2,-1l0 0 -162 0c-2,0 -3,1 -3,1l1 0 0 267c0,0 0,2 2,2l0 0 162 0c2,0 2,-2 2,-2l0 0 47 0 47 0c0,53 -44,95 -96,95l0 0 -162 0c-53,0 -96,-42 -96,-95l0 0 0 -267z"/>
   <path class="fil0" d="M36915 24436c0,-53 43,-95 96,-95l0 0 162 0c52,0 96,42 96,95l0 0 0 267 -47 0 -47 0 0 -267c0,0 0,-1 -2,-1l0 0 -162 0c-2,0 -3,1 -3,1l0 0 0 267c0,0 1,1 3,2l0 0 162 0c2,0 2,-2 2,-2l47 0 47 0c0,53 -44,95 -96,95l0 0 -162 0c-53,0 -96,-42 -96,-95l0 0 0 -267z"/>
   <path class="fil0" d="M36915 25046c0,-53 43,-95 96,-95l0 0 162 0c52,0 96,42 96,95l0 0 0 267 -47 0 -47 0 0 -267c0,0 -1,-1 -2,-1l0 0 -162 0c-2,0 -3,1 -3,1l0 267c0,0 1,1 3,1l0 0 162 0c2,0 2,-1 2,-1l0 0 47 0 47 0c0,53 -44,95 -96,95l0 0 -162 0c-52,0 -96,-42 -96,-95l0 0 0 -267z"/>
   <path class="fil0" d="M36915 25657c0,-54 43,-96 96,-96l0 0 162 0c52,0 96,42 96,95l0 1 0 266 -47 0 -47 0 0 -266c0,-1 0,-2 -2,-2l0 0 -162 0c-2,0 -3,1 -3,1l1 1 0 266c0,0 0,2 2,2l0 0 162 0c2,0 2,-2 2,-2l0 0 47 0 47 0c0,53 -44,95 -96,95l0 0 -162 0c-53,0 -96,-42 -96,-95l0 0 0 -266z"/>
   <path class="fil0" d="M36915 26266c0,-53 43,-95 96,-95l0 0 162 0c52,0 96,42 96,95l0 0 0 267 -47 0 -47 0 0 -267c0,0 0,-1 -2,-1l0 0 -162 0c-2,0 -3,1 -3,1l1 0 0 267c0,0 0,1 2,1l0 1 162 0c2,0 2,-2 2,-2l0 0 47 0 47 0c0,53 -44,95 -96,95l0 0 -162 0c-53,0 -96,-42 -96,-95l0 0 0 -267z"/>
   <path class="fil0" d="M36915 26876c0,-53 43,-95 96,-95l0 0 162 0c52,0 96,42 96,95l0 0 0 267 -47 0 -47 0 0 -267c0,0 -1,-1 -2,-1l0 0 -162 0c-2,0 -2,1 -3,1l0 0 0 267c1,0 1,1 3,1l0 1 162 0c1,0 2,-2 2,-2l0 0 47 0 47 0c0,53 -44,96 -96,96l0 0 -162 0c-53,0 -96,-43 -96,-96l0 0 0 -267z"/>
   <path class="fil0" d="M36915 27486c0,-53 43,-95 96,-95l0 0 162 0c52,0 96,42 96,95l0 0 0 267 -47 0 -47 0 0 -267c0,0 0,-1 -2,-1l0 0 -162 0c-2,0 -3,1 -3,1l0 0 0 267c0,0 1,1 3,2l0 0 162 0c2,-1 2,-2 2,-2l0 0 47 0 47 0c0,53 -44,95 -96,95l0 0 -162 0c-53,0 -96,-42 -96,-95l0 0 0 -267z"/>
   <path class="fil0" d="M40267 7388c7,-11 20,-19 33,-21l0 0 598 -76 6 46 -46 12 46 -12 -6 -46c23,-3 45,11 51,34l0 0 118 443c3,13 1,27 -7,39l0 0c-8,11 -20,18 -34,19l0 0 -619 55c-25,2 -47,-15 -51,-40l0 0c-23,-145 -56,-285 -95,-414l0 0c-1,-4 -2,-9 -2,-13l0 0c0,-9 3,-18 8,-26l0 0zm99 65c30,105 55,216 76,330l0 0 520 -45 -93 -349 -503 64z"/>
   <path class="fil0" d="M40024 6778l474 -362c11,-8 26,-12 40,-8l0 0c13,3 25,13 31,25l0 0 318 677c7,13 6,29 -1,42l0 0c-7,13 -20,22 -34,24l0 0 -604 89c-22,3 -43,-9 -51,-30l0 0c-60,-164 -126,-302 -184,-395l0 0c-5,-8 -7,-16 -7,-25l0 0c0,-14 6,-28 18,-37l0 0zm29 37l28 38 -28 -38zm456 -289l-395 301c52,90 107,205 158,340l0 0 503 -74 -266 -567z"/>
   <path class="fil0" d="M39435 5641c0,-26 21,-47 47,-47l0 0 369 0c13,0 26,6 35,16l0 0 564 618c9,10 13,23 12,35l0 1c-1,12 -7,24 -17,33l0 0 -500 402 -29 -37 29 37c-19,15 -47,13 -64,-5l0 0c-126,-138 -295,-266 -432,-351l0 0c-14,-9 -22,-24 -22,-40l0 0 8 -662zm396 47l-303 0 -7 590c128,81 277,194 399,320l0 0 427 -343 -516 -567z"/>
   <path class="fil0" d="M37698 7768l117 -443c7,-22 28,-37 52,-34l0 0 598 76c13,2 25,10 33,21l0 0c7,12 9,26 6,39l0 0c-39,129 -72,269 -96,414l0 0c-4,25 -26,42 -50,40l0 0 -619 -55c-14,-1 -26,-8 -34,-19l0 0c-6,-8 -9,-18 -9,-27l0 0c0,-4 1,-8 2,-12l0 0zm105 -30l520 45c20,-114 46,-225 75,-330l0 0 -502 -64 -93 349z"/>
   <path class="fil0" d="M37878 7110l318 -677c6,-12 18,-22 31,-25l0 0c14,-4 28,0 40,8l0 0 473 362c20,15 25,41 12,62l0 0c-58,93 -125,230 -185,395l0 0c-7,21 -29,33 -51,30l0 0 -603 -89c-15,-2 -27,-11 -34,-24l0 0c-4,-7 -6,-15 -6,-22l0 0c0,-7 2,-14 5,-20l0 0zm378 -584l-267 567 504 74c51,-135 105,-251 157,-340l0 0 -394 -301z"/>
   <path class="fil0" d="M38314 6228l565 -619c9,-9 21,-15 35,-15l0 0 369 0c25,0 46,21 46,47l0 0 8 662c0,16 -8,31 -22,40l0 0c-136,85 -306,213 -431,351l0 0 -35 -32 35 32c-17,18 -45,20 -64,5l-500 -402c-10,-8 -17,-21 -18,-33l0 0c0,-1 0,-2 0,-3l0 0c0,-12 4,-24 12,-33l0 0zm922 -540l-302 0 -517 567 428 343c122,-127 271,-239 398,-320l0 0 -7 -590z"/>
   <path class="fil0" d="M40503 9284l638 0c80,2 147,61 159,139l0 0 56 409c1,9 1,16 1,22l0 0c0,72 -59,132 -133,132l0 0 -639 0c-79,-1 -146,-60 -158,-139l0 0 46 -6 -46 6 -56 -413c-1,-5 -1,-11 -1,-18l0 0c0,-72 59,-131 132,-132l1 0zm760 563l-56 -411c-3,-30 -37,-59 -66,-58l0 0 -638 0c-26,1 -38,14 -39,38l0 0c0,2 0,5 0,7l0 0 56 411c3,30 37,59 65,58l0 0 639 0c26,-1 38,-14 39,-38l0 0c0,-3 0,-5 0,-7l0 0z"/>
   <path class="fil0" d="M77401 56291l10 -29 392 -496c16,-21 46,-24 66,-8l0 0c20,16 24,46 8,66l0 0 -382 483 0 1969c0,26 -21,46 -47,46l0 0c-26,0 -47,-21 -47,-46l0 0 0 -1985z"/>
   <path class="fil0" d="M43162 26933c17,-20 46,-23 66,-6l0 0 34549 28925c20,16 23,46 6,66l0 0c-17,20 -47,22 -66,6l0 0 -34549 -28925c-11,-9 -17,-23 -17,-36l0 0c0,-11 4,-21 11,-30l0 0z"/>
   <path class="fil0" d="M43159 34514c14,-22 43,-28 65,-13l0 0 31902 21113 0 -1866c0,-26 21,-47 47,-47l0 0c26,0 47,21 47,47l0 0 0 1954c0,17 -10,33 -25,41l0 0c-15,8 -34,8 -48,-2l0 0 -31975 -21162 0 0c-13,-9 -21,-24 -21,-39l0 0c0,-9 3,-18 8,-26l0 0z"/>
   <path class="fil0" d="M53215 42889l2100 0c12,0 24,5 33,14l0 0c9,9 14,21 14,33l0 0 0 2397c0,26 -21,47 -47,47l0 0c-26,0 -47,-21 -47,-47l0 0 0 -2350 -2053 0c-25,0 -46,-21 -46,-47l0 0c0,-26 21,-47 46,-47l0 0z"/>
   <path class="fil0" d="M55286 44025c14,-21 43,-27 65,-13l0 0 9424 6243c13,9 21,23 21,39l0 0 -1 524c0,26 -20,46 -47,46l0 0c-25,0 -46,-20 -46,-46l0 0 0 -499 -9403 -6228c-14,-9 -21,-24 -21,-40l0 0c0,-9 2,-18 8,-26l0 0z"/>
   <path class="fil0" d="M55885 44428l675 -1031c14,-22 44,-28 65,-14l0 0c22,14 28,44 14,65l0 0 -675 1032c-14,21 -43,27 -65,13l0 0c-14,-9 -21,-24 -21,-39l0 0c0,-9 2,-18 7,-26l0 0z"/>
   <path class="fil0" d="M57651 45625l703 -1067c14,-21 43,-27 65,-13l0 0c22,14 28,44 13,65l0 0 -703 1067c-14,21 -43,28 -65,13l0 0c-13,-9 -21,-24 -21,-39l0 0c0,-9 3,-18 8,-26l0 0z"/>
   <path class="fil0" d="M59520 46841l686 -1035c14,-21 43,-27 65,-13l0 0c21,14 27,43 13,65l0 0 -686 1035c-14,22 -43,28 -64,13l0 0c-14,-9 -22,-24 -22,-39l0 0c0,-9 3,-18 8,-26l0 0z"/>
   <path class="fil0" d="M61469 48134l706 -1023c15,-22 44,-27 65,-12l0 0c22,14 27,44 12,65l0 0 -707 1023c-14,22 -43,27 -65,12l0 0c-13,-9 -20,-24 -20,-39l0 0c0,-9 3,-18 9,-26l0 0z"/>
   <path class="fil0" d="M63301 49338l700 -1013c15,-21 44,-26 65,-11l0 0c21,14 27,43 12,65l0 0 -699 1012c-15,21 -45,27 -66,12l0 0c-13,-9 -20,-24 -20,-39l0 0c0,-9 2,-18 8,-26l0 0z"/>
   <path class="fil0" d="M53215 42889c27,0 47,21 48,47l0 0 0 1777c0,26 -21,47 -47,47l0 0c-26,0 -47,-21 -47,-47l0 0 0 -1777c0,-26 21,-47 46,-47l0 0z"/>
   <path class="fil0" d="M46568 41073l638 -1605c9,-24 36,-35 60,-27l0 0 4912 1796c24,9 36,35 28,59l0 0 -496 1489c-8,24 -35,37 -59,29l0 0c-25,-8 -38,-35 -30,-59l0 0 482 -1446 -4827 -1764 -621 1562c-10,24 -37,36 -61,27l0 0c-18,-8 -29,-25 -29,-44l0 0c0,-6 1,-12 3,-17l0 0z"/>
   <path class="fil0" d="M43165 39972c9,-24 35,-38 59,-30l1 0 9944 3291c25,8 38,35 30,59l0 0c-8,25 -35,38 -59,30l0 0 -9945 -3291c-20,-6 -32,-25 -32,-44l0 0c0,-5 1,-10 2,-15l0 0z"/>
   <path class="fil0" d="M43165 41125c8,-24 34,-38 59,-30l0 0 9944 3092c25,8 39,34 31,59l0 0c-7,25 -34,38 -59,31l0 0 -9944 -3093c-20,-6 -33,-24 -33,-44l0 0c0,-5 1,-10 2,-15l0 0z"/>
   <path class="fil0" d="M49056 41908l559 -1542c9,-25 36,-37 60,-29l0 0c24,9 37,36 28,61l0 0 -559 1542c-9,25 -35,37 -60,28l0 1c-19,-7 -31,-26 -31,-45l0 0c0,-5 1,-10 3,-16l0 0z"/>
   <path class="fil0" d="M26343 79519l10418 -9562c25,-23 60,-31 92,-20l0 0c32,10 57,37 63,70l0 0c126,612 233,1097 301,1397l0 0c219,959 1207,4980 1665,7951l0 0c7,47 -22,92 -68,105l0 0 -12687 3467c-28,8 -58,2 -81,-16l0 0c-24,-18 -37,-45 -37,-74l0 0c0,-1 0,-2163 0,-2510l0 0c0,-6 0,-11 0,-17l0 0c0,-352 102,-609 334,-791l0 0zm122 143c-193,158 -266,330 -269,665l0 0c0,297 0,1924 0,2387l0 0 12488 -3412c-461,-2951 -1432,-6904 -1650,-7856l0 0c-62,-275 -156,-702 -268,-1239l0 0 -10301 9455zm12300 -383l24 91 -24 -91z"/>
   <path class="fil0" d="M26591 79414c0,-25 21,-46 47,-46l0 0c26,0 47,21 47,46l0 0 0 3272c0,26 -21,47 -47,47l0 0c-26,0 -47,-21 -47,-47l0 0 0 -3272z"/>
   <path class="fil0" d="M26607 79929l10372 -8974c20,-16 50,-14 67,5l0 0c16,20 14,49 -5,66l0 0 -10372 8974c-20,17 -49,15 -66,-5l0 1c-8,-10 -12,-20 -12,-32l0 0c0,-13 5,-26 16,-35l0 0z"/>
   <path class="fil0" d="M27807 81210c0,-19 11,-35 27,-43l0 0 10363 -4791c24,-11 52,0 62,23l0 0c12,23 1,51 -22,62l0 0 -10336 4778 0 1071c0,26 -21,47 -47,47l0 0c-26,0 -47,-21 -47,-47l0 0 0 -1100z"/>
   <path class="fil0" d="M34364 78164c19,-17 49,-16 66,3l0 0 348 376c8,9 12,20 12,32l0 0 0 1911c0,26 -21,47 -47,47l1 0c-26,0 -47,-21 -47,-47l0 0 0 -1893 -335 -362 -1 0c-8,-9 -12,-21 -12,-32l0 0c0,-13 5,-25 15,-35l0 0z"/>
   <path class="fil0" d="M39039 64126c23,-248 59,-448 110,-590l0 0c51,-139 116,-238 226,-242l0 0c110,4 176,103 226,242l0 0c51,142 87,342 110,590l0 0c160,1731 271,4062 271,6909l0 0c0,3347 -153,7406 -560,12038l0 0 -47 -4 47 4c-2,24 -23,43 -47,43l0 0c-24,0 -45,-19 -47,-43l0 0c-407,-4632 -559,-8691 -560,-12038l0 0c1,-2847 111,-5178 271,-6909l0 0zm579 9c-23,-243 -59,-438 -105,-567l0 0c-47,-133 -103,-184 -138,-180l0 0c-35,-4 -91,47 -138,180l0 0c-46,129 -82,324 -105,567l0 0c-159,1727 -270,4056 -270,6900l0 0c0,3213 141,7084 513,11488l0 0c372,-4405 513,-8275 513,-11488l0 0c0,-2844 -111,-5173 -270,-6900l0 0z"/>
   <path class="fil0" d="M35554 47553l198 0c83,0 150,-68 150,-150l0 0 0 -663c0,-83 -67,-150 -150,-150l0 0 -198 0 0 0c-26,0 -47,-21 -47,-47l0 0c0,-26 21,-47 47,-47l0 0 198 0c135,0 243,109 243,244l1 0 0 663c0,134 -109,244 -244,244l0 0 -198 0c-26,0 -47,-21 -47,-47l0 0c0,-26 21,-47 47,-47l0 0z"/>
   <path class="fil0" d="M35554 35778l198 0c83,0 150,-67 150,-150l0 0 0 -663c0,-83 -67,-149 -150,-150l0 0 -198 0c-26,0 -47,-21 -47,-46l0 0c0,-26 21,-47 47,-47l0 0 198 0c135,0 244,109 244,243l0 0 0 663c0,135 -109,244 -244,244l0 0 -198 0c-26,0 -47,-21 -47,-47l0 0c0,-26 21,-47 47,-47l0 0z"/>
   <path class="fil0" d="M35554 22826l198 0c83,0 150,-67 150,-149l0 0 0 -664c0,-82 -67,-150 -150,-150l0 0 -198 0c-26,0 -47,-21 -47,-46l0 0c0,-26 21,-48 47,-48l0 0 198 0c134,0 244,110 244,244l0 0 0 664c0,134 -110,243 -244,243l0 0 -198 0c-26,0 -47,-21 -47,-47l0 0c0,-26 21,-47 47,-47l0 0z"/>
   <path class="fil0" d="M35659 11876c2,-26 25,-45 50,-42l0 0 195 17c7,0 13,0 16,0l0 0c77,0 143,-58 149,-136l0 0 59 -662c0,-4 0,-8 0,-12l0 0c0,-77 -59,-143 -137,-149l0 0 -197 -18 0 0c-26,-2 -45,-25 -43,-51l0 0c3,-25 25,-45 51,-42l0 0 197 17c127,11 223,117 223,243l0 0c0,6 0,14 -1,21l0 0 -58 661c-11,127 -118,222 -243,222l0 0c-8,0 -14,0 -22,-1l1 0 -197 -17c-25,-2 -43,-23 -43,-47l0 0c0,-1 0,-2 0,-4l0 0z"/>
   <path class="fil0" d="M35818 63537l227 -21c2,-1 5,-1 8,-1l0 0c170,1 326,93 343,239l0 0 105 951c0,5 0,11 0,18l0 0c-3,141 -145,231 -305,232l0 0 -210 12c-26,1 -48,-19 -49,-44l0 0c-2,-26 18,-49 44,-50l213 -12c133,-1 214,-74 214,-138l0 0c0,-2 -1,-5 -1,-8l0 0 -104 -952c-3,-71 -110,-154 -246,-154l0 0 -230 22c-26,2 -49,-17 -51,-43l0 0c-1,-1 -1,-3 -1,-4l0 0c0,-24 19,-45 43,-47l0 0z"/>
   <path class="fil0" d="M37683 7768l118 -443c6,-22 28,-37 51,-34l0 0 598 76c14,2 26,10 33,21l0 0c8,12 10,26 6,39l0 0c-38,129 -72,269 -95,414l0 0c-4,25 -26,42 -51,40l1 0 -619 -55c-14,-1 -27,-8 -35,-19l0 0c-5,-8 -8,-18 -8,-27l0 0c0,-4 0,-8 1,-12l0 0zm106 -30l519 45c21,-114 46,-225 76,-330l0 0 -503 -64 -92 349z"/>
   <path class="fil0" d="M37863 7110l318 -677c7,-12 18,-22 32,-25l0 0c13,-4 28,0 39,8l0 0 474 362c19,15 24,41 11,62l0 0c-58,93 -124,230 -184,395l0 0c-8,21 -29,33 -51,30l0 0 -603 -89c-15,-2 -28,-11 -35,-24l0 0c-3,-7 -5,-15 -5,-22l0 0c0,-7 1,-14 4,-20l0 0zm379 -584l-267 567 503 74c51,-135 106,-251 158,-340l0 0 -394 -301z"/>
   <path class="fil0" d="M38300 6228l564 -619c9,-9 22,-15 35,-15l0 0 369 0c26,0 47,21 47,47l0 0 8 662c0,16 -9,31 -22,40l0 0c-136,85 -306,213 -432,351l0 0 -34 -32 34 32c-16,18 -45,20 -64,5l0 0 -500 -402c-10,-8 -16,-21 -17,-33l0 0c0,-2 0,-3 0,-4l0 0c0,-12 4,-23 12,-32l0 0zm922 -540l-302 0 -517 567 427 343c122,-127 272,-239 399,-320l0 0 -7 -590z"/>
   <path class="fil0" d="M38304 1013l1071 0 1071 0c26,0 47,21 47,47l0 0c0,26 -21,47 -47,47l0 0 -1071 0 -1071 0 0 0c-26,0 -47,-21 -47,-47l0 0c0,-26 21,-47 47,-47l0 0z"/>
   <path class="fil0" d="M39137 78249c61,-94 152,-134 238,-133l0 0c86,-1 177,39 238,133l0 0c62,93 98,234 98,442l0 0c0,26 -21,47 -46,47l0 0c-26,0 -47,-21 -47,-47 -5,-399 -132,-480 -243,-482l0 0c-111,2 -238,83 -243,482l0 0c0,26 -21,47 -46,47l0 0c-26,0 -47,-21 -47,-47l0 0c0,-208 36,-349 98,-442l0 0z"/>
   <path class="fil0" d="M77452 54058c0,-26 21,-47 47,-47l0 0c26,0 46,21 46,47l0 0 0 1520c0,26 -20,47 -46,47l0 0c-26,0 -47,-21 -47,-47l0 0 0 -1520z"/>
   <path class="fil0" d="M73893 54808l868 -1334c14,-22 43,-28 65,-14l0 0c22,15 28,44 14,65l0 1 -869 1333c-13,22 -43,28 -64,14l0 0c-14,-9 -22,-24 -22,-39l0 0c0,-9 3,-18 8,-26l0 0z"/>
   <path class="fil0" d="M43753 27356l1323 -1488c18,-19 47,-21 67,-4l0 0c19,17 21,47 4,66l0 0 -1324 1489c-17,19 -46,21 -66,4l0 0c-10,-10 -16,-22 -16,-35l0 0c0,-11 4,-23 12,-32l0 0z"/>
   <path class="fil0" d="M45728 29129l1323 -1488c17,-20 47,-21 66,-4l0 0c20,17 21,47 4,66l0 0 -1323 1489c-17,19 -47,21 -66,3l0 0c-11,-9 -16,-22 -16,-35l0 0c0,-11 4,-22 12,-31l0 0z"/>
   <path class="fil0" d="M48136 30996l1158 -1324c17,-19 47,-21 66,-4l0 0c20,17 22,46 4,66l0 0 -1157 1323c-17,20 -47,22 -66,5l0 0c-11,-10 -16,-23 -16,-36l0 0c0,-11 3,-22 11,-31l0 1z"/>
   <path class="fil0" d="M50310 32934l1157 -1323c18,-20 47,-22 67,-5l0 0c19,17 21,47 4,66l0 0 -1158 1324c-17,19 -46,21 -66,4l0 0c-11,-9 -16,-22 -16,-35l0 0c0,-11 4,-22 11,-31l1 0z"/>
   <path class="fil0" d="M52685 34882l1117 -1241c17,-19 47,-20 66,-3l0 0c19,17 21,47 3,66l0 0 -1116 1241c-17,19 -47,20 -66,3l0 0c-11,-9 -16,-22 -16,-35l0 0c0,-11 4,-22 12,-31l0 0z"/>
   <path class="fil0" d="M54421 36288l993 -1116c17,-20 47,-21 66,-4l0 0c19,17 21,46 4,66l0 0 -992 1116c-18,20 -47,21 -67,4l0 0c-10,-9 -15,-22 -15,-35l0 0c0,-11 3,-22 11,-31l0 0z"/>
   <path class="fil0" d="M57553 38925l900 -1055c16,-19 46,-22 66,-5l0 0c19,17 22,46 5,66l0 0 -900 1055c-16,19 -46,22 -66,5l0 0c-10,-9 -16,-23 -16,-36l0 0c0,-11 4,-21 11,-30l0 0z"/>
   <path class="fil0" d="M59553 40646l900 -1055c17,-19 46,-22 66,-5l0 0c20,17 22,47 5,66l0 0 -899 1055c-17,19 -47,22 -66,5l0 0c-11,-9 -17,-23 -17,-36l0 0c0,-11 4,-21 11,-30l0 0z"/>
   <path class="fil0" d="M61708 42430l807 -977c16,-20 45,-23 66,-7l0 1c19,16 22,45 6,65l0 0 -806 977c-17,20 -46,23 -66,7l0 0c-12,-10 -17,-23 -17,-37l0 0c0,-10 3,-21 10,-29l0 0z"/>
   <path class="fil0" d="M64862 45122l792 -963c17,-20 46,-23 67,-7l0 0c20,17 22,46 6,66l0 0 -792 963c-17,20 -46,23 -66,6l0 0c-12,-9 -18,-22 -18,-36l0 0c0,-10 4,-21 11,-29l0 0z"/>
   <path class="fil0" d="M66395 46405l764 -913c17,-20 46,-23 66,-6l0 0c20,17 23,46 6,66l0 0 -764 914c-17,20 -47,22 -66,6l0 0c-11,-10 -17,-23 -17,-37 0,-10 3,-21 11,-30l0 0z"/>
   <path class="fil0" d="M68625 48197l713 -807c17,-19 47,-21 67,-4l0 0c19,17 21,47 4,67l0 0 -714 806c-17,19 -46,21 -66,4l0 0c-10,-9 -16,-22 -16,-35l0 0c0,-11 4,-22 12,-31l0 0z"/>
   <path class="fil0" d="M70669 49906l621 -838c15,-21 44,-25 65,-10l0 0c21,16 25,45 10,66l0 0 -620 838c-16,20 -45,25 -66,9l0 0c-12,-9 -19,-23 -19,-37l0 0c0,-10 3,-20 9,-28l0 0z"/>
   <path class="fil0" d="M72936 51794l713 -806c17,-19 47,-21 66,-4l0 0c20,17 21,47 4,66l0 0 -713 806c-17,20 -47,22 -66,4l0 0c-11,-9 -16,-22 -16,-35l0 0c0,-11 4,-22 12,-31l0 0z"/>
   <path class="fil0" d="M74578 53160l683 -837c16,-20 46,-23 65,-7l0 0c21,16 23,46 7,66l0 0 -682 837c-16,21 -46,24 -66,7l0 0c-12,-9 -17,-22 -17,-36l0 0c0,-11 3,-21 10,-30l0 0z"/>
   <path class="fil0" d="M76235 54579l762 -923c17,-20 46,-23 66,-6l0 0c20,16 23,46 7,66l0 0 -763 923c-16,20 -46,23 -66,7l0 0c-11,-10 -17,-23 -17,-37l0 0c0,-10 4,-21 11,-30l0 0z"/>
   <path class="fil0" d="M65698 50306c0,-17 9,-33 24,-41l0 0c15,-8 33,-8 47,1l0 0 8188 4993c14,8 22,23 22,40l0 0 0 899c0,26 -21,47 -47,47 -25,0 -47,-21 -47,-47l0 0 0 -873 -8093 -4936 0 1002c0,26 -21,47 -47,47l0 0c-26,0 -47,-21 -47,-47l0 0 0 -1085z"/>
   <path class="fil0" d="M43223 31392c15,-21 44,-26 65,-11l0 0 29709 21003 220 -220c18,-18 48,-18 66,0l0 0c18,19 18,48 0,66l0 0 -248 249c-16,16 -41,18 -60,5l0 0 -29741 -21027c-13,-9 -20,-23 -20,-38l0 0c0,-9 3,-19 9,-27l0 0z"/>
   <path class="fil0" d="M43223 28756c15,-21 44,-26 66,-11l0 0 9288 6656 601 -89c26,-4 50,13 53,39l0 0c4,25 -13,49 -39,53l0 0 -620 93c-12,2 -25,-1 -35,-8l0 0 -9303 -6668 0 0c-13,-9 -20,-23 -20,-38l0 0c0,-9 3,-19 9,-27l0 0z"/>
   <path class="fil0" d="M55306 44792c13,-22 42,-29 64,-15l0 0 9407 5768c22,13 29,42 15,64l0 0c-13,22 -42,29 -64,16l0 0 -9407 -5768c-14,-9 -22,-24 -22,-40l0 0c0,-8 2,-17 7,-25l0 0z"/>
   <path class="fil0" d="M885 55758c20,-16 50,-13 65,8l0 0 393 496 10 29 0 1985 0 0c0,26 -21,46 -47,46 -26,0 -47,-21 -47,-46l0 0 0 -1969 -382 -483c-7,-9 -10,-19 -10,-29l0 0c0,-14 6,-28 18,-37l0 0z"/>
   <path class="fil0" d="M977 55852l34549 -28925c19,-17 49,-14 66,6l0 0c16,20 14,49 -6,66l0 0 -34549 28925c-20,16 -49,14 -66,-6l0 0c-7,-9 -11,-20 -11,-30l0 0c0,-14 6,-27 17,-36l0 0z"/>
   <path class="fil0" d="M3534 53748c0,-26 21,-47 47,-47l0 0c26,0 47,21 47,47l0 0 0 1866 31902 -21113c21,-14 50,-8 65,13l0 0c14,22 8,51 -14,65l0 0 -31974 21162c-15,10 -33,10 -48,2l0 0c-15,-8 -25,-24 -25,-41l0 0 0 -1954z"/>
   <path class="fil0" d="M23392 42936c0,-12 5,-24 14,-33l0 0c8,-9 21,-14 33,-14l0 0 2099 0c26,0 47,21 47,47l0 0c0,26 -21,47 -47,47l0 0 -2052 0 0 2350c0,26 -21,47 -47,47l0 0c-26,0 -47,-21 -47,-47l0 0 0 -2397z"/>
   <path class="fil0" d="M13958 50294c0,-16 8,-31 21,-39l0 0 9424 -6243c21,-14 51,-8 65,13l0 0c14,22 8,51 -13,66l0 0 -9403 6228 0 499c0,26 -21,46 -47,46l0 0c-26,0 -47,-20 -47,-46l0 0 0 -524z"/>
   <path class="fil0" d="M22128 43383c22,-14 51,-8 65,14l0 0 675 1031c15,22 8,51 -13,65l0 0c-22,15 -51,8 -65,-13l0 0 -675 -1032c-5,-8 -8,-17 -8,-25l0 0c0,-16 8,-31 21,-40l0 0z"/>
   <path class="fil0" d="M20335 44545c21,-14 50,-8 65,13l0 0 703 1067c14,22 8,51 -14,65l0 0c-21,15 -50,8 -65,-13l0 0 -703 -1067c-5,-8 -7,-17 -7,-26l0 0c0,-15 7,-30 21,-39l0 0z"/>
   <path class="fil0" d="M18483 45793c22,-14 51,-8 65,13l0 0 685 1035c15,22 9,51 -13,65l0 0c-21,15 -51,9 -65,-13l0 0 -685 -1035c-5,-8 -8,-17 -8,-26l0 0c0,-15 7,-30 21,-39l0 0z"/>
   <path class="fil0" d="M16514 47099c20,-15 50,-10 65,12l0 0 706 1023c15,21 9,51 -12,65l0 0c-21,15 -50,10 -65,-12l0 0 -707 -1023c-5,-8 -8,-17 -8,-27l0 0c0,-15 7,-29 21,-38l0 0z"/>
   <path class="fil0" d="M14688 48314c21,-15 50,-10 65,11l0 0 700 1013c14,21 9,50 -12,65l0 0c-22,15 -51,9 -66,-12l0 0 -699 -1012c-6,-9 -9,-18 -9,-27l0 0c0,-15 8,-30 21,-38l0 0z"/>
   <path class="fil0" d="M25491 42936c0,-26 21,-47 47,-47l0 0c26,0 47,21 47,47l0 0 0 1777c-1,26 -22,47 -47,47l0 0c-27,0 -47,-21 -47,-47l0 0 0 -1777z"/>
   <path class="fil0" d="M26576 41237l4912 -1796c24,-8 50,3 60,27l0 0 638 1605 0 0c9,24 -3,51 -27,60l0 0c-24,10 -51,-2 -60,-26l0 0 -622 -1562 -4826 1764 482 1446c8,25 -5,51 -30,59l0 0c-24,8 -51,-5 -59,-30l0 1 -496 -1489c-2,-5 -3,-10 -3,-15l0 0c0,-19 12,-37 31,-44l0 0z"/>
   <path class="fil0" d="M25585 43233l9944 -3291c25,-8 51,6 60,30l0 0c8,25 -6,51 -30,59l0 0 -9945 3291c-24,8 -51,-5 -59,-30l0 0c-2,-5 -3,-10 -3,-15l0 0c0,-19 13,-38 33,-44l0 0z"/>
   <path class="fil0" d="M25585 44187l9945 -3092c25,-8 51,6 59,30l0 0c7,25 -7,52 -31,59l0 0 -9945 3093c-25,7 -51,-6 -58,-31l0 0c-2,-5 -2,-9 -2,-14 0,-20 12,-39 32,-45l0 0z"/>
   <path class="fil0" d="M29079 40337c24,-8 51,4 60,29l0 0 559 1542c8,25 -4,52 -28,60l0 1c-25,8 -52,-4 -60,-29l0 0 -559 -1542c-2,-6 -3,-11 -3,-16l0 0c0,-19 12,-37 31,-45l0 0z"/>
   <path class="fil0" d="M1208 54058c0,-26 21,-47 47,-47l0 0c26,0 47,21 47,47l0 0 0 1520c0,26 -21,47 -47,47l0 0c-26,0 -47,-21 -47,-47l0 0 0 -1520z"/>
   <path class="fil0" d="M3928 53460c21,-14 50,-8 64,14l0 0 869 1334c14,22 8,51 -14,65 -22,14 -51,8 -65,-14l0 0 -868 -1333c-5,-9 -8,-17 -8,-26l0 0c0,-15 8,-30 22,-40l0 0z"/>
   <path class="fil0" d="M33611 25864c19,-17 49,-15 66,4l0 0 1323 1488c18,20 16,50 -3,67l0 0c-20,17 -49,15 -67,-4l0 0 -1323 -1489c-8,-9 -12,-20 -12,-31l1 0c0,-13 5,-26 15,-35l0 0z"/>
   <path class="fil0" d="M31636 27637c20,-17 49,-16 67,4l0 0 1323 1488c17,20 16,49 -4,66l0 0c-19,18 -49,16 -66,-4l0 1 -1323 -1489c-8,-9 -12,-20 -12,-31l0 0c0,-13 5,-26 15,-35l0 0z"/>
   <path class="fil0" d="M29394 29668c19,-17 49,-15 66,4l0 0 1157 1324c18,19 15,49 -4,66l0 0c-19,17 -49,15 -66,-5l0 0 -1158 -1323c-7,-9 -11,-20 -11,-31l0 0c0,-13 5,-26 16,-35l0 0z"/>
   <path class="fil0" d="M27220 31606c20,-17 49,-15 66,5l0 0 1158 1323c17,19 15,49 -4,66l0 0c-20,17 -49,15 -67,-4l0 0 -1157 -1324c-8,-9 -12,-20 -12,-31l0 0c0,-13 6,-26 16,-35l0 0z"/>
   <path class="fil0" d="M24886 33638c19,-17 49,-16 66,3l0 0 1117 1241c17,19 15,49 -4,66l0 0c-19,17 -49,16 -66,-3l0 0 -1116 -1241c-9,-9 -13,-20 -13,-31l0 0c0,-13 6,-26 16,-35l0 0z"/>
   <path class="fil0" d="M23274 35168c19,-17 49,-16 66,4l0 0 992 1116c17,19 16,49 -4,66l0 0c-19,17 -49,16 -66,-4l0 0 -992 -1116c-8,-9 -12,-20 -12,-31l0 0c0,-13 5,-26 16,-35l0 0z"/>
   <path class="fil0" d="M20235 37865c20,-17 49,-14 66,5l0 0 900 1055c16,20 14,49 -6,66l0 0c-19,17 -49,14 -66,-5l0 0 -899 -1055c-8,-9 -11,-20 -11,-30l0 0c0,-14 5,-27 16,-36l0 0z"/>
   <path class="fil0" d="M18235 39586c19,-17 49,-14 66,5l0 0 899 1055c17,20 15,49 -5,66 -20,17 -49,14 -66,-5l0 0 -899 -1055c-8,-8 -12,-19 -12,-30l0 0c0,-13 6,-26 17,-36l0 0z"/>
   <path class="fil0" d="M16173 41447c20,-17 49,-14 66,6l0 0 806 977c17,20 14,49 -6,66l0 0c-20,16 -49,13 -66,-7l0 0 -806 -977c-8,-8 -11,-19 -11,-29l0 0c0,-14 6,-27 17,-37l0 1z"/>
   <path class="fil0" d="M13033 44152c20,-16 50,-13 66,7l0 0 792 963c17,19 14,49 -6,65 -20,17 -50,14 -66,-6l0 0 -792 -963c-8,-8 -11,-19 -11,-30l0 0c0,-13 6,-26 17,-36l0 0z"/>
   <path class="fil0" d="M11529 45486c19,-17 49,-14 66,6l0 0 764 913c16,20 14,50 -6,67l0 0c-20,16 -49,14 -66,-7l0 1 -764 -914c-7,-8 -11,-19 -11,-30l0 0c0,-13 6,-27 17,-36l0 0z"/>
   <path class="fil0" d="M9349 47386c19,-17 49,-15 67,4l0 0 713 807c17,19 15,49 -5,66l0 0c-19,17 -48,15 -66,-4l0 0 -713 -806c-8,-10 -12,-20 -12,-32l0 0c0,-12 6,-25 16,-35l0 0z"/>
   <path class="fil0" d="M7398 49058c21,-15 51,-11 66,10l0 0 620 838c16,20 11,50 -9,65l0 0c-21,16 -51,11 -66,-9l0 0 -620 -838c-7,-8 -9,-18 -9,-28l0 0c0,-14 6,-28 18,-38l0 0z"/>
   <path class="fil0" d="M5039 50984c19,-17 48,-15 66,4l0 0 713 806c17,20 15,49 -4,66l0 0c-20,18 -49,16 -66,-4l0 0 -714 -806c-7,-9 -11,-20 -11,-31l0 0c0,-13 5,-26 16,-35l0 0z"/>
   <path class="fil0" d="M3427 52316c20,-16 50,-13 66,7l0 0 682 837c17,20 14,49 -6,66l0 0c-20,17 -50,14 -66,-7l0 0 -682 -837c-7,-9 -11,-19 -11,-30l0 0c0,-13 6,-27 17,-36l0 0z"/>
   <path class="fil0" d="M1690 53650c21,-17 50,-14 66,6l0 0 763 923c16,20 14,50 -7,67l0 0c-19,16 -49,13 -65,-7l0 0 -763 -923c-7,-9 -11,-20 -11,-30l0 0c0,-14 6,-27 17,-36l0 0z"/>
   <path class="fil0" d="M4775 55299c0,-17 8,-32 22,-40l8187 -4993c15,-9 33,-9 48,-1l0 0c14,8 23,24 23,41l0 0 0 1085c0,26 -20,47 -46,47l0 0c-26,0 -47,-21 -47,-47l0 0 0 -1002 -8094 4936 0 873c0,26 -21,47 -47,47l0 0c-25,0 -46,-21 -46,-47l0 0 0 -899z"/>
   <path class="fil0" d="M5470 52164c19,-18 48,-18 67,0l0 0 220 220 29709 -21003c21,-15 50,-10 65,11l0 0c15,21 10,50 -11,65l0 0 -29741 21027c-19,13 -44,11 -60,-5l0 0 -248 -249 0 1c-10,-9 -14,-22 -14,-34l0 0c0,-12 4,-24 13,-33l0 0z"/>
   <path class="fil0" d="M25522 35351c4,-26 28,-44 54,-40l0 0 601 90 9288 -6656 0 0c21,-15 50,-10 66,11l0 0c15,21 10,50 -11,65l0 0 -9304 6668c-10,7 -22,10 -34,8l0 0 -620 -93c-24,-3 -40,-24 -40,-46l0 0c0,-3 0,-5 0,-7l0 0z"/>
   <path class="fil0" d="M13977 50545l9407 -5768c22,-14 51,-7 64,15l0 0c14,22 7,51 -16,65l0 0 -9406 5768c-22,13 -52,6 -65,-16l0 0c-5,-8 -7,-16 -7,-25l0 0c0,-15 8,-30 23,-39l0 0z"/>
   <path class="fil0" d="M23824 33383c0,-26 21,-47 47,-47l0 0 1403 3c26,0 47,21 47,47l0 0c0,26 -21,47 -47,47l0 0 -1404 -3c-25,0 -46,-21 -46,-46l0 0c0,-1 0,-1 0,-1l0 0z"/>
  </g>
 </g>
</svg>
